<svg xmlns="http://www.w3.org/2000/svg" viewBox="0 0 306.57 334.12"><defs><style>.cls-1{fill:#abb4bc;}</style></defs><g id="Layer_2" data-name="Layer 2"><path class="cls-1" d="M411.17,329a16.12,16.12,0,0,0-14.95-8.65c-1.9.08-3.79.12-5.64.12-75.11,0-136.22-60.5-136.22-134.86a132.79,132.79,0,0,1,27.15-80.79A16.14,16.14,0,0,0,268,79a168.23,168.23,0,0,0-114.42,51,165.6,165.6,0,0,0-47.14,115.94c0,92.15,75.59,167.12,168.5,167.12a167.83,167.83,0,0,0,76.54-18.2,169.74,169.74,0,0,0,58.26-48.64A16.15,16.15,0,0,0,411.17,329Zm-74.29,37.07a135.77,135.77,0,0,1-61.95,14.72c-75.12,0-136.23-60.49-136.23-134.85a133.46,133.46,0,0,1,38-93.45,135.92,135.92,0,0,1,60.46-36.17,164.84,164.84,0,0,0-15.09,69.29c0,82.25,60.2,150.81,139.2,164.6A135.8,135.8,0,0,1,336.88,366.06Z" transform="translate(-106.43 -78.93)"/></g></svg>