<svg id="Layer_1" data-name="Layer 1" xmlns="http://www.w3.org/2000/svg" viewBox="0 0 443.72 437.74"><defs><style>.cls-1{fill:#abb4bc;}</style></defs><path class="cls-1" d="M253.44,134.45c-65.07,0-118,51.36-118,114.49s52.94,114.49,118,114.49,118-51.36,118-114.49S318.51,134.45,253.44,134.45Zm0,196.71c-47.28,0-85.74-36.89-85.74-82.22s38.46-82.22,85.74-82.22,85.74,36.88,85.74,82.22S300.72,331.16,253.44,331.16Z" transform="translate(-31.58 -30.07)"/><path class="cls-1" d="M253.44,111.57a16.14,16.14,0,0,0,16.14-16.14V46.21a16.14,16.14,0,1,0-32.27,0V95.43A16.14,16.14,0,0,0,253.44,111.57Z" transform="translate(-31.58 -30.07)"/><path class="cls-1" d="M132,151.89a16.14,16.14,0,0,0,22.65-23L119.3,94.09a16.14,16.14,0,0,0-22.65,23Z" transform="translate(-31.58 -30.07)"/><path class="cls-1" d="M47.72,265.07h50a16.14,16.14,0,1,0,0-32.27H47.72a16.14,16.14,0,1,0,0,32.27Z" transform="translate(-31.58 -30.07)"/><path class="cls-1" d="M132,346,96.65,380.8a16.14,16.14,0,0,0,22.65,23L154.62,369A16.14,16.14,0,0,0,132,346Z" transform="translate(-31.58 -30.07)"/><path class="cls-1" d="M253.44,386.31a16.14,16.14,0,0,0-16.13,16.14v49.22a16.14,16.14,0,1,0,32.27,0V402.45A16.14,16.14,0,0,0,253.44,386.31Z" transform="translate(-31.58 -30.07)"/><path class="cls-1" d="M374.91,346a16.14,16.14,0,0,0-22.65,23l35.33,34.81a16.14,16.14,0,0,0,22.65-23Z" transform="translate(-31.58 -30.07)"/><path class="cls-1" d="M459.17,232.8h-50a16.14,16.14,0,0,0,0,32.27h50a16.14,16.14,0,0,0,0-32.27Z" transform="translate(-31.58 -30.07)"/><path class="cls-1" d="M363.59,156.53a16.1,16.1,0,0,0,11.32-4.64l35.33-34.81a16.14,16.14,0,0,0-22.65-23L352.26,128.9a16.14,16.14,0,0,0,11.33,27.63Z" transform="translate(-31.58 -30.07)"/></svg>