<svg xmlns="http://www.w3.org/2000/svg" viewBox="0 0 530.05 103.91"><defs><style>.cls-1{fill:#231f20;}.cls-2{fill:none;stroke:#231f20;stroke-miterlimit:10;stroke-width:3px;}</style></defs><g id="Layer_3" data-name="Layer 3"><path class="cls-1" d="M10.49,16.69h-.21A4.13,4.13,0,0,0,9,13.63a4.28,4.28,0,0,0-3.1-1.28H5.05L5,11.66h5.51Zm0,38.16v5H5l.07-.68h.82A4.28,4.28,0,0,0,9,57.91a4.13,4.13,0,0,0,1.31-3.06Zm4.27-43.19V59.87H10.28V11.66Zm3.92,0a20.37,20.37,0,0,1,8.16,1.45,11.25,11.25,0,0,1,5.07,4,10.66,10.66,0,0,1,1.72,6,11.14,11.14,0,0,1-1.1,5.07,10.41,10.41,0,0,1-2.83,3.51,10.62,10.62,0,0,1-3.65,1.89A14.6,14.6,0,0,1,32.35,36a12.52,12.52,0,0,1,4.07,4.65,13.64,13.64,0,0,1,1.41,6.24A12.36,12.36,0,0,1,36,53.71a12.19,12.19,0,0,1-5.48,4.55,21.37,21.37,0,0,1-8.71,1.61H14.14c0-.82.07-1.65.07-2.48h7.3a13.18,13.18,0,0,0,6.06-1.27,8.67,8.67,0,0,0,3.78-3.75,12.48,12.48,0,0,0,1.31-5.93,11.77,11.77,0,0,0-1.48-6.26,9.82,9.82,0,0,0-3.82-3.65,16.41,16.41,0,0,0-5.06-1.69,32,32,0,0,0-5.2-.45v-.62a20.12,20.12,0,0,0,3.51-.34,11.35,11.35,0,0,0,3.72-1.38,8.11,8.11,0,0,0,3-3.07,10.61,10.61,0,0,0,1.17-5.33,11.57,11.57,0,0,0-1.13-5.31A7.58,7.58,0,0,0,24,15a12.26,12.26,0,0,0-5.54-1.13H12.07a4.72,4.72,0,0,0-.17-.59c-.12-.34-.29-.88-.52-1.62Z" transform="translate(-4.98 -4.64)"/><path class="cls-1" d="M49.06,23h-.21a3.55,3.55,0,0,0-1.1-2.65,3.7,3.7,0,0,0-2.69-1.07H44.3v-.69h4.76Zm0,32.51v4.4H44.3v-.68h.76a3.65,3.65,0,0,0,2.69-1.11,3.57,3.57,0,0,0,1.1-2.61Zm4.2-36.92V59.87H48.85V18.55Zm-2.62-4.89c1-1.06,1.93-2.1,2.89-3.13s1.94-2,2.93-3,2-1.94,2.93-2.86c.5.55,1,1.12,1.51,1.72a10.93,10.93,0,0,1,1.31,1.93l-3.72,2.06c-1.24.69-2.47,1.35-3.68,2s-2.45,1.23-3.69,1.82ZM53.12,23V18.55h4.75l-.07.69h-.69a3.67,3.67,0,0,0-2.68,1.07A3.72,3.72,0,0,0,53.26,23Zm0,32.51h.14a3.76,3.76,0,0,0,1.17,2.61,3.63,3.63,0,0,0,2.68,1.11h.69l.07.68H53.12Z" transform="translate(-4.98 -4.64)"/><path class="cls-1" d="M70.54,23h-.2a3.71,3.71,0,0,0-1.21-2.69,4.17,4.17,0,0,0-2.92-1h-.83v-.69h5.16Zm0,32.51v4.4H65.38v-.68h.83a4,4,0,0,0,2.92-1.11,3.76,3.76,0,0,0,1.21-2.61Zm4.14-36.92V59.87H70.34V18.55Zm4.75,0a32.76,32.76,0,0,1,4.3.34,17.05,17.05,0,0,1,4.72,1.38,9.49,9.49,0,0,1,3.79,3.1,9.13,9.13,0,0,1,1.51,5.51,7.2,7.2,0,0,1-1.1,3.86,9.93,9.93,0,0,1-2.82,3,10.89,10.89,0,0,1-3.65,1.69,14.19,14.19,0,0,1,6,1.9,12.32,12.32,0,0,1,4.09,3.89,9.2,9.2,0,0,1,1.52,5.09,9.86,9.86,0,0,1-5.1,9.16,16.09,16.09,0,0,1-5,1.86,25.77,25.77,0,0,1-5.23.55h-8.4c0-.68.07-1.37.07-2.06h8.26a13.63,13.63,0,0,0,5.34-1,8.15,8.15,0,0,0,3.75-3.13,9.75,9.75,0,0,0,1.38-5.38A8.94,8.94,0,0,0,91.41,43a9.15,9.15,0,0,0-3.79-3.1,17.85,17.85,0,0,0-5.16-1.45A42.9,42.9,0,0,0,76.81,38v-.69a32.11,32.11,0,0,0,4-.27,13.24,13.24,0,0,0,4-1.14,7.43,7.43,0,0,0,3-2.55,7.77,7.77,0,0,0,1.17-4.51q0-4.34-2.55-6.3a11.22,11.22,0,0,0-7-2H71.85a4.25,4.25,0,0,0-.17-.59c-.11-.34-.26-.84-.45-1.48Z" transform="translate(-4.98 -4.64)"/><path class="cls-1" d="M109.73,23h-.14a3.63,3.63,0,0,0-1.23-2.65,4.13,4.13,0,0,0-2.9-1.07h-.82v-.69h5.09Zm0,32.51.9,4.4h-6v-.68h1a3.9,3.9,0,0,0,4-3.72ZM114,18.55V59.87h-4.41V18.55ZM113.8,23V18.55h5.09v.69h-.82a4.12,4.12,0,0,0-2.86,1.07A3.37,3.37,0,0,0,114,23Zm18.73,34.78-.14,2.13H113.86V57.74ZM136.39,50l-3.79,9.85H122.13l2.34-2.13a13,13,0,0,0,5.55-1,8.87,8.87,0,0,0,3.4-2.75,20.08,20.08,0,0,0,2.28-4Z" transform="translate(-4.98 -4.64)"/><path class="cls-1" d="M145.75,23h-.2a3.48,3.48,0,0,0-1.41-2.65,5.07,5.07,0,0,0-3.28-1.07h-1v-.69h5.85Zm0,32.51v4.4H139.9v-.68h1a5,5,0,0,0,3.28-1.11,3.52,3.52,0,0,0,1.41-2.61Zm4.14-36.92V59.87h-4.34V18.55ZM149.68,23V18.55h5.85l-.07.69h-.89a5,5,0,0,0-3.27,1.07A3.42,3.42,0,0,0,149.89,23Zm0,32.51h.21a3.46,3.46,0,0,0,1.41,2.61,4.94,4.94,0,0,0,3.27,1.11h.89l.07.68h-5.85Z" transform="translate(-4.98 -4.64)"/><path class="cls-1" d="M169.1,54.85a3.09,3.09,0,0,0,.21,3.2,2.84,2.84,0,0,0,2.2,1.14h.55v.68H158.91v-.68h.55a5.44,5.44,0,0,0,3-1A8,8,0,0,0,165,54.85Zm13.29-37.26.49,4.75L167.1,59.67h-4.33l16.32-35c.5-1.1.93-2.05,1.27-2.86s.66-1.59.93-2.37a8.6,8.6,0,0,0,.49-1.86Zm8.13,26.24v2.06H172.27V43.83Zm-8.13-26.24,19,41.87h-5.45L181.22,23.72ZM194,54.85h5.24a7.5,7.5,0,0,0,2.55,3.34,5.33,5.33,0,0,0,2.89,1h.55v.68H191.14v-.68h.55a2.8,2.8,0,0,0,2.14-1.14A3.07,3.07,0,0,0,194,54.85Z" transform="translate(-4.98 -4.64)"/><path class="cls-1" d="M239.42,10.7a20.28,20.28,0,0,1,2.38.14c.85.09,1.67.21,2.48.37s1.54.33,2.2.49a7.76,7.76,0,0,1,1.55.51v7.65h-.62a6.41,6.41,0,0,0-2.27-5.2,8.35,8.35,0,0,0-5.51-1.9,8.23,8.23,0,0,0-6.13,2.38,7.65,7.65,0,0,0-2.34,5.55,9.86,9.86,0,0,0,.58,3.06A8.15,8.15,0,0,0,233.91,27l13.57,12.54a9.47,9.47,0,0,1,2.75,4.13,14.25,14.25,0,0,1,.69,4.27,12.79,12.79,0,0,1-3.48,9.3,12.51,12.51,0,0,1-9.4,3.58,26.07,26.07,0,0,1-3.89-.35,19.28,19.28,0,0,1-4.34-1.2,10.4,10.4,0,0,1-3.47-2.24,15,15,0,0,1-.21-2.75,23.67,23.67,0,0,1,.27-3.48,22.56,22.56,0,0,1,.76-3.34h.62a11.46,11.46,0,0,0,.9,6.13,8.7,8.7,0,0,0,3.61,4,9.94,9.94,0,0,0,5.41,1.2,10.32,10.32,0,0,0,6.51-2.65,8.41,8.41,0,0,0,2.72-6.58,9.11,9.11,0,0,0-.69-3.61,7.83,7.83,0,0,0-2-2.79L231,30.88a10.76,10.76,0,0,1-2.89-4.24,12.84,12.84,0,0,1-.83-4.3,12.06,12.06,0,0,1,1.38-5.58,10.94,10.94,0,0,1,4.1-4.37A12.29,12.29,0,0,1,239.42,10.7Zm8.61.69v1.44H242.8V11.39Z" transform="translate(-4.98 -4.64)"/><path class="cls-1" d="M264,54.85a3,3,0,0,0,.21,3.2,2.82,2.82,0,0,0,2.2,1.14H267v.68H253.82v-.68h.55a5.44,5.44,0,0,0,3-1,7.87,7.87,0,0,0,2.61-3.34ZM277.3,17.59l.48,4.75L262,59.67h-4.34l16.33-35c.5-1.1.93-2.05,1.27-2.86s.65-1.59.93-2.37a7.93,7.93,0,0,0,.48-1.86Zm8.13,26.24v2.06H267.18V43.83ZM277.3,17.59l18.94,41.87H290.8L276.13,23.72Zm11.64,37.26h5.24a7.42,7.42,0,0,0,2.54,3.34,5.36,5.36,0,0,0,2.9,1h.55v.68H286.05v-.68h.55a2.77,2.77,0,0,0,2.13-1.14A3,3,0,0,0,288.94,54.85Z" transform="translate(-4.98 -4.64)"/><path class="cls-1" d="M324.82,17.59a38.63,38.63,0,0,1,6,.44,28,28,0,0,1,5.3,1.38,24.58,24.58,0,0,1,4.79,2.38l1.52,9.71h-.62a16.14,16.14,0,0,0-3.14-6.68A12.86,12.86,0,0,0,333,20.93a23.87,23.87,0,0,0-8.27-1.28A17.48,17.48,0,0,0,315.56,22a16,16,0,0,0-6.16,6.75,22.9,22.9,0,0,0-2.21,10.43,23,23,0,0,0,2.21,10.4,16,16,0,0,0,6.19,6.79,17.76,17.76,0,0,0,9.23,2.37,23.44,23.44,0,0,0,5.51-.62,20.15,20.15,0,0,0,5.07-2A21.63,21.63,0,0,0,340,52.78l.06-9.16a2.23,2.23,0,0,0-.79-2,3.68,3.68,0,0,0-2.37-.69h-1v-.68h12.61v.68h-1c-2.06,0-3.1.92-3.1,2.76V52A23,23,0,0,1,340.11,56a25.27,25.27,0,0,1-6.57,3.44,25.61,25.61,0,0,1-8.72,1.38,26.14,26.14,0,0,1-11.88-2.69,19,19,0,0,1-7.88-7.44,22.26,22.26,0,0,1-2.83-11.5,22.45,22.45,0,0,1,2.83-11.57A19.09,19.09,0,0,1,313,20.2,25.6,25.6,0,0,1,324.82,17.59Z" transform="translate(-4.98 -4.64)"/><path class="cls-1" d="M357.68,22.89h-.14a3.7,3.7,0,0,0-1.17-2.62,3.89,3.89,0,0,0-2.76-1h-1v-.69h5.85Zm0,32.58.82,4.4h-5.85v-.68h1a3.75,3.75,0,0,0,2.76-1.11,3.85,3.85,0,0,0,1.17-2.61Zm4.2-36.92V59.87h-4.41V18.55Zm-.21,36.92h.21a3.76,3.76,0,0,0,1.17,2.61,3.71,3.71,0,0,0,2.75,1.11h.9l.07.68h-5.93Zm8.27-36.92a20.57,20.57,0,0,1,5.82.76,12.72,12.72,0,0,1,4.4,2.2A9.66,9.66,0,0,1,383,25a11,11,0,0,1,1,4.69,10.85,10.85,0,0,1-1.38,5.37,11.33,11.33,0,0,1-3.82,4.06,12.57,12.57,0,0,1-5.55,1.93,8.47,8.47,0,0,1,2.72,2.14,28,28,0,0,1,2.65,3.23q1.8,2.41,3.21,4.17T384.54,54c1,1.06,1.84,2,2.65,2.76a9.16,9.16,0,0,0,2.62,1.82,7.64,7.64,0,0,0,3.27.66v.68h-2.14a17.24,17.24,0,0,1-6.23-1,12.23,12.23,0,0,1-4-2.38,29.67,29.67,0,0,1-2.62-2.72c-.18-.23-.61-.81-1.27-1.75L374.69,49c-.78-1.1-1.5-2.1-2.14-3s-1-1.44-1.17-1.62a18.17,18.17,0,0,0-3.17-3.21,6,6,0,0,0-3.78-1.41v-.69c1.46,0,2.77,0,3.92,0a38.6,38.6,0,0,0,3.86-.31,7.58,7.58,0,0,0,3.61-1.48,8.12,8.12,0,0,0,2.66-4.13,8.62,8.62,0,0,0,.41-1.79,11.56,11.56,0,0,0,.07-2.13,9.5,9.5,0,0,0-.73-3.45,7.47,7.47,0,0,0-1.86-2.62,8.86,8.86,0,0,0-2.85-1.72,11.89,11.89,0,0,0-3.72-.69c-2.16-.09-4-.11-5.65-.06a18.15,18.15,0,0,1-2.41,0,4.25,4.25,0,0,0-.17-.59c-.12-.34-.29-.86-.52-1.55Z" transform="translate(-4.98 -4.64)"/><path class="cls-1" d="M401.89,54.85a3.09,3.09,0,0,0,.21,3.2,2.84,2.84,0,0,0,2.2,1.14h.55v.68H391.7v-.68h.55a5.44,5.44,0,0,0,3-1,8,8,0,0,0,2.62-3.34Zm13.3-37.26.48,4.75L399.9,59.67h-4.34l16.32-35c.5-1.1.93-2.05,1.27-2.86s.66-1.59.93-2.37a8.6,8.6,0,0,0,.49-1.86Zm8.12,26.24v2.06H405.06V43.83Zm-8.12-26.24,18.94,41.87h-5.45L414,23.72Zm11.63,37.26h5.24a7.5,7.5,0,0,0,2.55,3.34,5.33,5.33,0,0,0,2.89,1h.55v.68H423.93v-.68h.55a2.8,2.8,0,0,0,2.14-1.14A3.07,3.07,0,0,0,426.82,54.85Z" transform="translate(-4.98 -4.64)"/><path class="cls-1" d="M446.45,23h-.13a3.79,3.79,0,0,0-1.21-2.72,3.9,3.9,0,0,0-2.79-1.07h-.83v-.69h5Zm0,32.37v4.47h-5v-.68h.9a3.66,3.66,0,0,0,2.75-1.14,4,4,0,0,0,1.18-2.65Zm4.34-36.85V59.87h-4.47V18.55Zm13.71,0A26.14,26.14,0,0,1,476.28,21a17.81,17.81,0,0,1,7.64,7.13,21.72,21.72,0,0,1,2.69,11.05,21.53,21.53,0,0,1-2.69,11,18.11,18.11,0,0,1-7.64,7.13,25.74,25.74,0,0,1-11.78,2.51H449.83l-.14-2.06H464.5q8,0,12.57-5t4.58-13.6q0-8.61-4.58-13.6t-12.57-5H449V18.55Z" transform="translate(-4.98 -4.64)"/><path class="cls-1" d="M498.86,54.85a3.09,3.09,0,0,0,.21,3.2,2.84,2.84,0,0,0,2.21,1.14h.55v.68H488.67v-.68h.55a5.41,5.41,0,0,0,3-1,7.88,7.88,0,0,0,2.62-3.34Zm13.3-37.26.48,4.75L496.87,59.67h-4.34l16.32-35c.51-1.1.93-2.05,1.28-2.86s.65-1.59.93-2.37a9.08,9.08,0,0,0,.48-1.86Zm8.12,26.24v2.06H502V43.83Zm-8.12-26.24L531.1,59.46h-5.44L511,23.72ZM523.8,54.85H529a7.5,7.5,0,0,0,2.55,3.34,5.33,5.33,0,0,0,2.89,1H535v.68H520.9v-.68h.56a2.77,2.77,0,0,0,2.13-1.14A3.09,3.09,0,0,0,523.8,54.85Z" transform="translate(-4.98 -4.64)"/><path class="cls-1" d="M183.66,73.89v1a4.51,4.51,0,0,0-1.94,1.1A7.83,7.83,0,0,0,179.87,79l-11.28,29.08h-.77L156.11,77.92a5.05,5.05,0,0,0-1.63-2.42,3.53,3.53,0,0,0-1.68-.65v-1l2.37.1c1,0,1.87,0,2.77,0,1.24,0,2.41,0,3.5,0l2.64-.1v1a7.64,7.64,0,0,0-2.47.38,1.35,1.35,0,0,0-.92,1.18,6.3,6.3,0,0,0,.56,2.47l8.92,23.67-.76.81,8.35-21.69a11.21,11.21,0,0,0,1-4.06,2.32,2.32,0,0,0-1.11-2.09,6.44,6.44,0,0,0-3.07-.67v-1l2.83.1c1,0,1.86,0,2.69,0s1.52,0,2.07,0Z" transform="translate(-4.98 -4.64)"/><path class="cls-1" d="M193.5,82.48a8.54,8.54,0,0,1,6.6,2.57c1.59,1.71,2.38,4.38,2.38,8H185.53l0-.91h12.38a15.86,15.86,0,0,0-.38-4.34,7.63,7.63,0,0,0-1.51-3.2,3.36,3.36,0,0,0-2.67-1.2,4.9,4.9,0,0,0-3.91,2.21q-1.71,2.2-2,7l.14.19c-.06.48-.11,1-.14,1.59s-.05,1.15-.05,1.72a13.55,13.55,0,0,0,1.06,5.62,8.57,8.57,0,0,0,2.76,3.58,6,6,0,0,0,3.52,1.22,8,8,0,0,0,2.74-.46,6.59,6.59,0,0,0,2.4-1.51,9,9,0,0,0,1.92-2.83l1,.38a9.93,9.93,0,0,1-1.73,3.08,9.06,9.06,0,0,1-7.25,3.36,10.69,10.69,0,0,1-5.92-1.59,10.23,10.23,0,0,1-3.79-4.39,14.85,14.85,0,0,1-1.33-6.46A17.87,17.87,0,0,1,184,88.84a10.68,10.68,0,0,1,3.79-4.7A9.91,9.91,0,0,1,193.5,82.48Z" transform="translate(-4.98 -4.64)"/><path class="cls-1" d="M221.05,82.48a4.74,4.74,0,0,1,2.28.53,4.11,4.11,0,0,1,1.54,1.37,3.35,3.35,0,0,1,.55,1.89,3.3,3.3,0,0,1-.74,2.12,2.46,2.46,0,0,1-2,.91,2.68,2.68,0,0,1-1.78-.65,2.29,2.29,0,0,1-.77-1.85,2.44,2.44,0,0,1,.51-1.56,4.34,4.34,0,0,1,1.12-1,1.14,1.14,0,0,0-1-.48,4.62,4.62,0,0,0-2.74.89,7.7,7.7,0,0,0-2.11,2.28,12.49,12.49,0,0,0-1.35,2.95,9.92,9.92,0,0,0-.48,2.9v10.18c0,1.57.46,2.62,1.37,3.14a7.39,7.39,0,0,0,3.72.8v1l-3.12-.12c-1.34,0-2.77-.07-4.27-.07-1.09,0-2.17,0-3.24.07l-2.42.12v-1a4.3,4.3,0,0,0,2.8-.72,3.53,3.53,0,0,0,.84-2.74v-15a5.41,5.41,0,0,0-.76-3.2,3.44,3.44,0,0,0-2.88-1v-1q1.53.15,3,.15a20.79,20.79,0,0,0,2.67-.17,13.71,13.71,0,0,0,2.32-.5v6a13.16,13.16,0,0,1,1.52-2.81A9.09,9.09,0,0,1,218,83.44,5.29,5.29,0,0,1,221.05,82.48Z" transform="translate(-4.98 -4.64)"/><path class="cls-1" d="M236.08,82.48a7.61,7.61,0,0,1,3.26.63,9,9,0,0,1,2,1.15c1.06.86,1.7.29,1.92-1.73h1.1c-.06.9-.11,2-.14,3.19s-.05,2.89-.05,5H243a15.16,15.16,0,0,0-1-3.46,6.75,6.75,0,0,0-2-2.76,5.4,5.4,0,0,0-3.5-1.08,4.28,4.28,0,0,0-2.81.94,3.38,3.38,0,0,0-1.13,2.76,3.71,3.71,0,0,0,.87,2.47,9.65,9.65,0,0,0,2.25,1.92l3,2A34.34,34.34,0,0,1,242,95.78a10.68,10.68,0,0,1,2.38,2.64,6.37,6.37,0,0,1,.88,3.41,5.83,5.83,0,0,1-1.15,3.69,7.25,7.25,0,0,1-3,2.26,10.47,10.47,0,0,1-4,.77,11.55,11.55,0,0,1-2-.17,9.26,9.26,0,0,1-1.8-.51,10.25,10.25,0,0,1-1-.57c-.34-.23-.66-.47-1-.72a.57.57,0,0,0-.87,0,3.18,3.18,0,0,0-.57,1.61h-1.11c.07-1,.11-2.27.15-3.74s0-3.43,0-5.86h1.11a26.77,26.77,0,0,0,1,4.7,6.39,6.39,0,0,0,2,3.15,5.64,5.64,0,0,0,3.74,1.13,4.75,4.75,0,0,0,1.94-.44,3.74,3.74,0,0,0,1.66-1.44A4.73,4.73,0,0,0,241,103a4.4,4.4,0,0,0-1.53-3.46,31.36,31.36,0,0,0-3.89-2.83c-1.15-.74-2.23-1.47-3.24-2.21a10,10,0,0,1-2.45-2.5,6.61,6.61,0,0,1,.05-6.88,5.7,5.7,0,0,1,2.61-2A9.48,9.48,0,0,1,236.08,82.48Z" transform="translate(-4.98 -4.64)"/><path class="cls-1" d="M255.76,108.21a7.39,7.39,0,0,1-3.41-.74,5.12,5.12,0,0,1-2.18-2.09,6.32,6.32,0,0,1-.75-3.12,5.7,5.7,0,0,1,1-3.46,7.36,7.36,0,0,1,2.52-2.16,20.32,20.32,0,0,1,3.24-1.37l3.24-1A10.22,10.22,0,0,0,261.93,93a2.07,2.07,0,0,0,1-1.77v-3a6.32,6.32,0,0,0-.6-3.07,3,3,0,0,0-1.61-1.42,6.64,6.64,0,0,0-2.25-.36,10.51,10.51,0,0,0-2.57.34,3.86,3.86,0,0,0-2.19,1.39A2.87,2.87,0,0,1,256,88.1a2.42,2.42,0,0,1-.77,1.89,2.8,2.8,0,0,1-2,.7,2.37,2.37,0,0,1-2-.89,3.28,3.28,0,0,1-.64-2,3.1,3.1,0,0,1,.62-2,7.93,7.93,0,0,1,1.58-1.44A10.75,10.75,0,0,1,255.59,83a13.44,13.44,0,0,1,4-.55,10.7,10.7,0,0,1,3.36.46,5.82,5.82,0,0,1,2.3,1.32,5.37,5.37,0,0,1,1.64,2.81,18.08,18.08,0,0,1,.38,4v13.34a3.16,3.16,0,0,0,.36,1.73,1.27,1.27,0,0,0,1.13.53,2.27,2.27,0,0,0,1-.24,7.88,7.88,0,0,0,1.15-.77l.53.81a16,16,0,0,1-1.93,1.28,5.1,5.1,0,0,1-2.44.5,4.94,4.94,0,0,1-2.31-.48,3.07,3.07,0,0,1-1.36-1.42,5.3,5.3,0,0,1-.46-2.37,8.87,8.87,0,0,1-3.1,3.21A7.8,7.8,0,0,1,255.76,108.21Zm.05-37.2a4.67,4.67,0,0,1,2.2.48,9.76,9.76,0,0,1,1.66,1.1,12.19,12.19,0,0,0,1.54,1.11,3.46,3.46,0,0,0,1.84.48,3.57,3.57,0,0,0,1.95-.6,6,6,0,0,0,1.75-2l.67.34a7,7,0,0,1-2.3,3.79,5.49,5.49,0,0,1-3.36,1.15,4.8,4.8,0,0,1-2.23-.48,8.06,8.06,0,0,1-1.68-1.12,10.64,10.64,0,0,0-1.54-1.13,3.6,3.6,0,0,0-3.79.12,5.63,5.63,0,0,0-1.75,2l-.68-.34a6.86,6.86,0,0,1,2.33-3.81A5.68,5.68,0,0,1,255.81,71Zm1.67,35.28a5.21,5.21,0,0,0,3-.91,8.54,8.54,0,0,0,2.47-2.74V93.23a4.32,4.32,0,0,1-1.68,1.37q-1.11.56-2.4,1.11A17,17,0,0,0,256.36,97a6.36,6.36,0,0,0-2,2,5.72,5.72,0,0,0-.76,3.12,4.42,4.42,0,0,0,1,3.07A3.55,3.55,0,0,0,257.48,106.29Z" transform="translate(-4.98 -4.64)"/><path class="cls-1" d="M284.61,82.48a11.22,11.22,0,0,1,5.51,1.35A9.54,9.54,0,0,1,294,88.05a16.64,16.64,0,0,1,1.46,7.49A16.45,16.45,0,0,1,294,103a9.54,9.54,0,0,1-3.92,4.2,11.9,11.9,0,0,1-11,0,9.53,9.53,0,0,1-3.94-4.2,16.45,16.45,0,0,1-1.46-7.46,16.64,16.64,0,0,1,1.46-7.49,9.53,9.53,0,0,1,3.94-4.22A11.29,11.29,0,0,1,284.61,82.48Zm0,1a5.17,5.17,0,0,0-4.49,2.83q-1.75,2.83-1.76,9.27t1.76,9.24a5,5,0,0,0,9,0q1.76-2.81,1.75-9.24t-1.75-9.27A5.18,5.18,0,0,0,284.61,83.44Z" transform="translate(-4.98 -4.64)"/><path class="cls-1" d="M341.87,73.89v1a5.88,5.88,0,0,0-2.47.48,2.2,2.2,0,0,0-1.13,1.39,10.09,10.09,0,0,0-.29,2.74v28.65h-1.1L316.72,77v25.35A9.28,9.28,0,0,0,317,105a2.16,2.16,0,0,0,1.25,1.39,8.41,8.41,0,0,0,2.8.5v1q-.85-.09-2.25-.12l-2.64,0-2.43,0q-1.22,0-2,.12v-1a6.79,6.79,0,0,0,2.48-.5,2.11,2.11,0,0,0,1.12-1.39,9.75,9.75,0,0,0,.29-2.71V79a8.44,8.44,0,0,0-.29-2.62,1.78,1.78,0,0,0-1.12-1.15,8.1,8.1,0,0,0-2.48-.36v-1l2,.1c.82,0,1.63,0,2.43,0s1.37,0,2,0l1.73-.1L336.88,100V79.46a9.58,9.58,0,0,0-.31-2.74,2.26,2.26,0,0,0-1.25-1.39,7.41,7.41,0,0,0-2.81-.48v-1l2.28.1c.94,0,1.81,0,2.61,0s1.66,0,2.48,0Z" transform="translate(-4.98 -4.64)"/><path class="cls-1" d="M374.17,73.89v1a4.46,4.46,0,0,0-1.94,1.1A7.71,7.71,0,0,0,370.38,79L359.1,108.11h-.77L346.62,77.92A5.12,5.12,0,0,0,345,75.5a3.53,3.53,0,0,0-1.68-.65v-1l2.37.1c.95,0,1.87,0,2.76,0,1.25,0,2.42,0,3.51,0l2.64-.1v1a7.71,7.71,0,0,0-2.48.38,1.35,1.35,0,0,0-.91,1.18,6.12,6.12,0,0,0,.56,2.47l8.92,23.67-.76.81,8.35-21.69a11.21,11.21,0,0,0,1-4.06,2.34,2.34,0,0,0-1.11-2.09,6.44,6.44,0,0,0-3.07-.67v-1l2.83.1c1,0,1.86,0,2.69,0s1.52,0,2.07,0Z" transform="translate(-4.98 -4.64)"/><path class="cls-1" d="M388.09,73.89v1a8,8,0,0,0-2.47.36,1.8,1.8,0,0,0-1.13,1.15A8.76,8.76,0,0,0,384.2,79v23.81a8.8,8.8,0,0,0,.29,2.59,1.73,1.73,0,0,0,1.13,1.15,9.77,9.77,0,0,0,2.47.38v1q-1.09-.09-2.76-.12l-3.33,0-3.51,0q-1.64,0-2.64.12v-1a9.77,9.77,0,0,0,2.47-.38,1.73,1.73,0,0,0,1.13-1.15,8.8,8.8,0,0,0,.29-2.59V79a8.76,8.76,0,0,0-.29-2.62,1.8,1.8,0,0,0-1.13-1.15,8,8,0,0,0-2.47-.36v-1l2.64.1c1.09,0,2.26,0,3.51,0s2.23,0,3.33,0Z" transform="translate(-4.98 -4.64)"/><line class="cls-2" x1="144.55" y1="85.67" x2="1.57" y2="85.67"/><line class="cls-2" x1="524.74" y1="85.67" x2="390.43" y2="85.67"/></g></svg>