<?xml version="1.0" encoding="utf-8"?>
<!-- Generator: Adobe Illustrator 24.1.2, SVG Export Plug-In . SVG Version: 6.00 Build 0)  -->
<svg version="1.1" id="Layer_1" xmlns="http://www.w3.org/2000/svg" xmlns:xlink="http://www.w3.org/1999/xlink" x="0px" y="0px"
	 viewBox="0 0 413 81" style="enable-background:new 0 0 413 81;" xml:space="preserve">
<style type="text/css">
	.st0{fill:#9B814B;}
	.st1{fill:none;stroke:#9B814B;stroke-width:3;stroke-miterlimit:10;}
</style>
<path class="st0" d="M4.3,9.4H4.1c0-0.9-0.3-1.8-1-2.4C2.5,6.3,1.6,6,0.7,6H0.1L0,5.5h4.3V9.4z M4.3,39.1V43H0l0.1-0.5h0.6
	c0.9,0,1.8-0.4,2.4-1c0.7-0.6,1-1.5,1-2.4L4.3,39.1z M7.7,5.5V43H4.1V5.5H7.7z M10.7,5.5c2.2-0.1,4.3,0.3,6.4,1.1
	C18.7,7.3,20,8.4,21,9.8c0.9,1.4,1.4,3,1.3,4.7c0,1.4-0.3,2.8-0.9,4c-0.5,1.1-1.3,2-2.2,2.7c-0.8,0.7-1.8,1.2-2.9,1.5
	c1.8,0.2,3.4,0.9,4.9,1.9c1.3,0.9,2.4,2.2,3.2,3.6c0.7,1.5,1.1,3.2,1.1,4.9c0,1.9-0.5,3.7-1.5,5.3c-1.1,1.5-2.5,2.8-4.3,3.5
	c-2.1,0.9-4.5,1.3-6.8,1.3h-6c0-0.6,0-1.3,0-1.9h5.7c1.6,0,3.2-0.3,4.7-1c1.3-0.6,2.3-1.7,3-2.9c0.7-1.4,1-3,1-4.6
	c0.1-1.7-0.3-3.4-1.1-4.9c-0.7-1.2-1.8-2.2-3-2.9c-1.2-0.6-2.6-1.1-3.9-1.3c-1.3-0.2-2.7-0.3-4.1-0.4v-0.5c0.9,0,1.8-0.1,2.7-0.3
	c1-0.2,2-0.6,2.9-1.1c1-0.6,1.8-1.4,2.3-2.4c0.7-1.3,1-2.7,0.9-4.2c0-1.4-0.3-2.8-0.9-4.1c-0.6-1.1-1.5-2-2.6-2.6
	c-1.4-0.6-2.8-0.9-4.3-0.9H5.5c0-0.1-0.1-0.3-0.1-0.4C5.3,6.5,5.2,6.1,5,5.5L10.7,5.5z"/>
<path class="st0" d="M34.3,14.3h-0.2c0-0.8-0.3-1.5-0.8-2.1c-0.6-0.6-1.3-0.9-2.1-0.8h-0.6v-0.5h3.7L34.3,14.3z M34.3,39.6V43h-3.7
	v-0.5h0.6c0.8,0,1.5-0.3,2.1-0.9c0.5-0.5,0.8-1.2,0.8-2L34.3,39.6z M37.7,10.8V43h-3.5V10.8H37.7z M35.7,7c0.8-0.8,1.5-1.6,2.3-2.4
	s1.5-1.6,2.3-2.4s1.5-1.5,2.2-2.2c0.4,0.4,0.8,0.9,1.2,1.3c0.4,0.5,0.7,1,1,1.5l-2.9,1.6c-1,0.5-1.9,1-2.9,1.5
	c-0.9,0.5-1.9,1-2.9,1.4L35.7,7z M37.6,14.3v-3.4h3.7v0.5h-0.6c-0.8,0-1.5,0.3-2.1,0.8C38,12.7,37.7,13.5,37.6,14.3L37.6,14.3z
	 M37.6,39.6L37.6,39.6c0.1,0.8,0.4,1.5,1,2c0.5,0.6,1.3,0.9,2.1,0.9h0.5V43h-3.7L37.6,39.6z"/>
<path class="st0" d="M51.1,14.3h-0.2c0-0.8-0.4-1.6-0.9-2.1c-0.6-0.6-1.5-0.9-2.3-0.8H47v-0.5h4L51.1,14.3z M51.1,39.6V43h-4v-0.5
	h0.6c0.8,0,1.7-0.3,2.3-0.9c0.6-0.5,0.9-1.2,0.9-2L51.1,39.6z M54.3,10.8V43h-3.4V10.8H54.3z M58,10.8c1.1,0,2.2,0.1,3.3,0.3
	c1.3,0.2,2.5,0.5,3.7,1.1c1.2,0.5,2.2,1.4,2.9,2.4c0.8,1.3,1.3,2.8,1.2,4.3c0,1.1-0.3,2.1-0.9,3c-0.6,0.9-1.3,1.7-2.2,2.3
	c-0.9,0.6-1.8,1.1-2.8,1.3c1.6,0.1,3.2,0.6,4.6,1.5c1.3,0.7,2.4,1.8,3.2,3c0.8,1.2,1.2,2.6,1.2,4c0.1,1.5-0.3,3-1.1,4.4
	c-0.7,1.1-1.7,2.1-2.9,2.8c-1.2,0.7-2.5,1.2-3.9,1.5c-1.3,0.3-2.7,0.4-4.1,0.4h-6.5c0-0.5,0.1-1.1,0.1-1.6h6.4
	c1.4,0,2.8-0.2,4.2-0.8c1.2-0.5,2.2-1.3,2.9-2.4c0.8-1.3,1.1-2.7,1.1-4.2c0.1-1.5-0.3-2.9-1.1-4.2c-0.8-1.1-1.8-1.9-3-2.4
	c-1.3-0.6-2.6-1-4-1.1c-1.5-0.2-2.9-0.3-4.4-0.3v-0.5c1,0,2.1-0.1,3.1-0.2c1.1-0.1,2.1-0.4,3.1-0.9c0.9-0.4,1.7-1.1,2.3-2
	c0.7-1,1-2.3,0.9-3.5c0-2.3-0.7-3.9-2-4.9c-1.6-1.1-3.5-1.6-5.5-1.5h-5.8c0-0.2-0.1-0.3-0.1-0.5c-0.1-0.3-0.2-0.6-0.3-1.1L58,10.8z"
	/>
<path class="st0" d="M81.7,14.3h-0.1c0-0.8-0.4-1.5-1-2.1c-0.6-0.6-1.4-0.9-2.3-0.8h-0.6v-0.5h4V14.3z M81.7,39.6l0.7,3.4h-4.7v-0.5
	h0.8c1.7,0.1,3-1.2,3.1-2.9c0,0,0,0,0,0H81.7z M85,10.8V43h-3.5V10.8H85z M84.8,14.3v-3.4h4v0.5h-0.7c-0.8,0-1.6,0.3-2.2,0.8
	c-0.6,0.5-1,1.3-0.9,2.1H84.8z M99.4,41.4L99.3,43H84.8v-1.7H99.4z M102.4,35.4l-3,7.7h-8.1l1.8-1.7c1.5,0.1,3-0.2,4.3-0.8
	c1-0.5,2-1.2,2.7-2.1c0.7-1,1.3-2,1.8-3.1H102.4z"/>
<path class="st0" d="M109.7,14.3h-0.2c0-0.8-0.4-1.6-1.1-2.1c-0.7-0.6-1.6-0.9-2.6-0.8h-0.8v-0.5h4.6V14.3z M109.7,39.6V43h-4.6
	v-0.5h0.8c0.9,0,1.8-0.3,2.6-0.9c0.6-0.5,1-1.2,1.1-2L109.7,39.6z M112.9,10.8V43h-3.4V10.8H112.9z M112.7,14.3v-3.4h4.6l-0.1,0.5
	h-0.7c-0.9,0-1.8,0.3-2.6,0.8c-0.7,0.5-1.1,1.2-1.1,2.1H112.7z M112.7,39.6h0.2c0.1,0.8,0.5,1.5,1.1,2c0.7,0.6,1.6,0.9,2.6,0.9h0.7
	l0.1,0.5h-4.6L112.7,39.6z"/>
<path class="st0" d="M127.9,39.1c-0.4,0.8-0.4,1.8,0.2,2.5c0.4,0.5,1,0.9,1.7,0.9h0.4V43h-10.3v-0.5h0.4c0.8,0,1.6-0.3,2.3-0.7
	c0.9-0.7,1.6-1.6,2-2.6L127.9,39.1z M138.2,10.1l0.4,3.7l-12.3,29h-3.4l12.7-27.3c0.4-0.9,0.7-1.6,1-2.2s0.5-1.3,0.7-1.9
	c0.2-0.5,0.3-1,0.4-1.4L138.2,10.1z M144.6,30.6v1.6h-14.2v-1.6L144.6,30.6z M138.2,10.1L153,42.8h-4.2l-11.4-27.9L138.2,10.1z
	 M147.3,39.1h4.1c0.4,1,1.1,1.9,2,2.6c0.7,0.5,1.4,0.7,2.3,0.8h0.4V43h-11v-0.5h0.4c0.7,0,1.3-0.4,1.7-0.9
	C147.7,40.9,147.7,39.9,147.3,39.1z"/>
<path class="st0" d="M182.7,4.8c0.6,0,1.2,0,1.9,0.1c0.7,0.1,1.3,0.2,1.9,0.3s1.2,0.3,1.7,0.4c0.4,0.1,0.8,0.2,1.2,0.4v6h-0.5
	c0.1-1.5-0.6-3-1.8-4c-2.7-2.1-6.5-2-9.1,0.4c-1.2,1.1-1.8,2.7-1.8,4.3c0,0.8,0.2,1.6,0.4,2.4c0.3,1,0.9,1.8,1.7,2.5l10.6,9.8
	c1,0.9,1.7,2,2.1,3.2c0.3,1,0.5,2.1,0.6,3.2c0.1,2.7-0.9,5.3-2.7,7.3c-2,1.9-4.6,2.9-7.4,2.8c-1,0-2-0.1-3-0.3
	c-1.2-0.2-2.3-0.5-3.4-0.9c-1-0.4-1.9-1-2.7-1.8c-0.1-0.7-0.2-1.4-0.2-2.1c0-0.9,0.1-1.8,0.2-2.7c0.1-0.9,0.3-1.7,0.6-2.6h0.5
	c-0.2,1.6,0,3.3,0.7,4.8c0.6,1.3,1.6,2.4,2.8,3.1c1.3,0.7,2.8,1,4.2,0.9c1.9-0.1,3.7-0.8,5.1-2.1c1.4-1.3,2.2-3.2,2.1-5.1
	c0-1-0.2-1.9-0.5-2.8c-0.4-0.8-0.9-1.6-1.6-2.2l-10.3-9.5c-1-0.9-1.8-2-2.3-3.3c-0.4-1.1-0.6-2.2-0.6-3.4c0-1.5,0.4-3,1.1-4.4
	c0.7-1.4,1.8-2.6,3.2-3.4C179.1,5.1,180.9,4.7,182.7,4.8z M189.4,5.3v1.1h-4.1V5.3L189.4,5.3z"/>
<path class="st0" d="M201.8,39.1c-0.4,0.8-0.4,1.8,0.2,2.5c0.4,0.5,1,0.9,1.7,0.9h0.4V43h-10.2v-0.5h0.4c0.8,0,1.7-0.3,2.4-0.7
	c0.9-0.7,1.6-1.6,2-2.6L201.8,39.1z M212.2,10.1l0.4,3.7l-12.3,29h-3.4l12.7-27.3c0.4-0.9,0.7-1.6,1-2.2s0.5-1.3,0.7-1.9
	c0.2-0.5,0.3-1,0.4-1.4L212.2,10.1z M218.5,30.6v1.6h-14.2v-1.6L218.5,30.6z M212.2,10.1l14.8,32.6h-4.3l-11.4-27.9L212.2,10.1z
	 M221.2,39.1h4.1c0.4,1,1.1,1.9,2,2.6c0.7,0.5,1.4,0.7,2.3,0.8h0.4V43h-11v-0.5h0.4c0.7,0,1.3-0.4,1.7-0.9
	C221.6,40.9,221.7,39.9,221.2,39.1L221.2,39.1z"/>
<path class="st0" d="M249.2,10.1c1.6,0,3.1,0.1,4.6,0.4c1.4,0.2,2.8,0.6,4.1,1.1c1.3,0.5,2.5,1.1,3.7,1.9l1.2,7.6h-0.5
	c-0.4-1.9-1.2-3.7-2.4-5.2c-1.2-1.4-2.7-2.4-4.4-3c-2.1-0.7-4.3-1-6.4-1c-2.5-0.1-5,0.6-7.2,1.9c-2.1,1.2-3.7,3.1-4.8,5.3
	c-1.2,2.5-1.8,5.3-1.7,8.1c-0.1,2.8,0.5,5.6,1.7,8.1c1.1,2.2,2.7,4,4.8,5.3c2.2,1.3,4.7,1.9,7.2,1.9c1.4,0,2.9-0.2,4.3-0.5
	c1.4-0.3,2.7-0.8,3.9-1.5c1.3-0.7,2.5-1.6,3.6-2.7l0.1-7.1c0.1-0.6-0.2-1.2-0.6-1.6c-0.5-0.4-1.2-0.6-1.9-0.5h-0.8v-0.6h9.8v0.5
	h-0.8c-1.6,0-2.4,0.7-2.4,2.1v6.4c-1,1.2-2.1,2.3-3.4,3.2c-1.6,1.2-3.3,2.1-5.1,2.7c-2.2,0.7-4.5,1.1-6.8,1c-3.2,0-6.4-0.7-9.3-2.1
	c-2.6-1.3-4.7-3.3-6.1-5.8c-1.5-2.7-2.3-5.9-2.2-9c-0.1-3.1,0.7-6.3,2.2-9c1.4-2.5,3.6-4.5,6.2-5.8C242.9,10.7,246,10,249.2,10.1z"
	/>
<path class="st0" d="M274.8,14.2h-0.1c0-0.8-0.4-1.5-0.9-2c-0.6-0.5-1.4-0.8-2.1-0.8h-0.8v-0.5h4.6L274.8,14.2z M274.8,39.6l0.6,3.4
	h-4.6v-0.5h0.8c0.8,0,1.6-0.3,2.1-0.9C274.4,41.1,274.7,40.4,274.8,39.6L274.8,39.6z M278.1,10.8V43h-3.4V10.8H278.1z M277.9,39.6
	h0.2c0,0.8,0.4,1.5,0.9,2c0.6,0.6,1.3,0.9,2.1,0.9h0.7l0.1,0.5h-4.6L277.9,39.6z M284.4,10.8c1.5,0,3.1,0.2,4.5,0.6
	c1.2,0.3,2.4,0.9,3.4,1.7c0.9,0.7,1.7,1.7,2.2,2.7c1.1,2.5,1,5.4-0.3,7.8c-0.7,1.3-1.8,2.4-3,3.2c-1.3,0.8-2.8,1.4-4.3,1.5
	c0.8,0.4,1.5,1,2.1,1.7c0.7,0.8,1.4,1.6,2.1,2.5c0.9,1.3,1.8,2.3,2.5,3.3s1.5,1.8,2.2,2.6s1.4,1.5,2.1,2.2c0.6,0.6,1.3,1.1,2,1.4
	c0.8,0.4,1.7,0.5,2.5,0.5V43h-1.7c-1.6,0.1-3.3-0.2-4.9-0.8c-1.1-0.4-2.2-1-3.1-1.8c-0.7-0.7-1.4-1.4-2-2.1c-0.1-0.2-0.5-0.6-1-1.4
	l-1.7-2.4l-1.7-2.3c-0.5-0.7-0.8-1.1-0.9-1.3c-0.7-0.9-1.5-1.8-2.5-2.5c-0.8-0.7-1.9-1.1-3-1.1v-0.5c1.2,0,2.2,0,3.1,0
	c1,0,2-0.1,3-0.2c1-0.1,2-0.5,2.8-1.2c1-0.8,1.7-2,2.1-3.2c0.2-0.5,0.3-0.9,0.3-1.4c0.1-0.6,0.1-1.1,0.1-1.7c0-0.9-0.2-1.8-0.6-2.7
	c-0.3-0.8-0.8-1.4-1.5-2c-0.6-0.6-1.4-1-2.2-1.3c-0.9-0.3-1.9-0.5-2.9-0.5c-1.7-0.1-3.1-0.1-4.4,0c-0.6,0.1-1.3,0.1-1.9,0
	c0,0,0-0.2-0.1-0.4l-0.4-1.2L284.4,10.8z"/>
<path class="st0" d="M309.3,39.1c-0.4,0.8-0.4,1.8,0.2,2.5c0.4,0.5,1,0.9,1.7,0.9h0.4V43h-10.2v-0.5h0.4c0.8,0,1.6-0.3,2.3-0.8
	c0.9-0.7,1.6-1.6,2-2.6L309.3,39.1z M319.6,10.1l0.4,3.7l-12.3,29h-3.4L317,15.6c0.4-0.9,0.7-1.6,1-2.2s0.5-1.3,0.7-1.9
	c0.2-0.5,0.3-1,0.4-1.4L319.6,10.1z M325.9,30.6v1.6h-14.2v-1.6L325.9,30.6z M319.6,10.1l14.8,32.6h-4.2l-11.5-27.9L319.6,10.1z
	 M328.7,39.1h4.1c0.4,1,1.1,1.9,2,2.6c0.7,0.5,1.4,0.7,2.3,0.8h0.4V43h-11v-0.5h0.4c0.7,0,1.3-0.4,1.7-0.9
	C329,40.9,329.1,39.9,328.7,39.1L328.7,39.1z"/>
<path class="st0" d="M344,14.3h-0.1c0-0.8-0.4-1.6-0.9-2.1c-0.6-0.6-1.4-0.9-2.2-0.8h-0.6v-0.5h3.9L344,14.3z M344,39.5V43h-3.9
	v-0.5h0.7c0.8,0,1.6-0.3,2.1-0.9C343.5,41.1,343.8,40.3,344,39.5L344,39.5z M347.4,10.8V43h-3.5V10.8L347.4,10.8z M358,10.8
	c3.2-0.1,6.3,0.6,9.2,1.9c2.5,1.2,4.6,3.1,6,5.5c1.4,2.6,2.2,5.6,2.1,8.6c0.1,3-0.6,6-2.1,8.6c-1.4,2.4-3.5,4.3-6,5.6
	c-2.9,1.4-6,2.1-9.2,2h-11.4l-0.1-1.6H358c4.1,0,7.4-1.3,9.8-3.9c2.4-2.6,3.6-6.1,3.6-10.6c0-4.5-1.2-8-3.6-10.6
	c-2.4-2.6-5.6-3.9-9.8-3.9H346v-1.7L358,10.8z"/>
<path class="st0" d="M384.8,39.1c-0.4,0.8-0.4,1.8,0.2,2.5c0.4,0.5,1,0.9,1.7,0.9h0.4V43h-10.3v-0.5h0.4c0.8,0,1.6-0.3,2.3-0.8
	c0.9-0.7,1.6-1.6,2-2.6L384.8,39.1z M395.2,10.1l0.4,3.7l-12.3,29h-3.4l12.7-27.3c0.4-0.9,0.7-1.6,1-2.2s0.5-1.3,0.7-1.9
	c0.2-0.5,0.3-1,0.4-1.4L395.2,10.1z M401.5,30.6v1.6h-14.2v-1.6L401.5,30.6z M395.2,10.1l14.8,32.7h-4.3l-11.4-27.9L395.2,10.1z
	 M404.2,39.1h4.1c0.4,1,1.1,1.9,2,2.6c0.7,0.5,1.4,0.7,2.3,0.8h0.4V43h-11v-0.5h0.4c0.7,0,1.3-0.4,1.7-0.9
	C404.6,40.9,404.6,39.9,404.2,39.1L404.2,39.1z"/>
<path class="st0" d="M139.2,54v0.7c-0.6,0.2-1.1,0.5-1.5,0.9c-0.7,0.7-1.2,1.5-1.4,2.4l-8.8,22.7h-0.6l-9.1-23.5
	c-0.2-0.7-0.7-1.4-1.3-1.9c-0.4-0.3-0.8-0.5-1.3-0.5V54L117,54c0.7,0,1.4,0,2.2,0c1,0,1.9,0,2.7,0L124,54v0.7
	c-0.7,0-1.3,0.1-1.9,0.3c-0.4,0.1-0.7,0.5-0.7,0.9c0,0.7,0.2,1.3,0.4,1.9l6.9,18.4l-0.6,0.6l6.6-16.9c0.5-1,0.7-2.1,0.8-3.2
	c0-0.7-0.3-1.3-0.9-1.6c-0.7-0.4-1.6-0.6-2.4-0.5V54l2.2,0.1c0.8,0,1.4,0,2.1,0s1.2,0,1.6,0L139.2,54z"/>
<path class="st0" d="M146.9,60.6c1.9-0.1,3.8,0.6,5.1,2c1.2,1.3,1.9,3.4,1.9,6.2h-13.2v-0.7h9.6c0.1-1.1,0-2.3-0.3-3.4
	c-0.2-0.9-0.6-1.8-1.2-2.5c-0.5-0.6-1.3-1-2.1-0.9c-1.2,0.1-2.3,0.7-3,1.7c-1,1.6-1.6,3.5-1.6,5.5l0.1,0.2c0,0.4-0.1,0.8-0.1,1.2
	s0,0.9,0,1.3c0,1.5,0.2,3,0.8,4.4c0.5,1.1,1.2,2.1,2.1,2.8c0.8,0.6,1.7,1,2.8,1c0.7,0,1.4-0.1,2.1-0.4c0.7-0.3,1.3-0.7,1.9-1.2
	c0.6-0.6,1.1-1.4,1.5-2.2l0.8,0.3c-0.3,0.9-0.8,1.7-1.5,2.3c-0.6,0.8-1.5,1.4-2.4,1.9c-1,0.5-2.2,0.8-3.3,0.7
	c-1.6,0.1-3.2-0.4-4.6-1.2c-1.3-0.8-2.3-2-2.9-3.4c-0.7-1.6-1-3.3-1-5c-0.1-1.9,0.3-3.9,1-5.7c0.6-1.5,1.7-2.8,3-3.7
	C143.8,61.1,145.3,60.6,146.9,60.6z"/>
<path class="st0" d="M168.4,60.6c0.6,0,1.2,0.1,1.8,0.4c0.5,0.3,0.9,0.6,1.2,1.1c0.3,0.4,0.4,0.9,0.4,1.5c0,0.6-0.2,1.2-0.6,1.7
	c-0.4,0.5-1,0.7-1.6,0.7c-0.5,0-1-0.2-1.4-0.5c-0.4-0.4-0.6-0.9-0.6-1.4c0-0.4,0.1-0.9,0.4-1.2c0.2-0.3,0.5-0.6,0.9-0.8
	c-0.2-0.3-0.5-0.4-0.8-0.4c-0.8,0-1.5,0.2-2.1,0.7c-0.7,0.5-1.2,1.1-1.6,1.8c-0.4,0.7-0.8,1.5-1,2.3c-0.2,0.7-0.4,1.5-0.4,2.3v7.9
	c-0.1,1,0.3,1.9,1.1,2.4c0.9,0.5,1.9,0.7,2.9,0.6v0.8l-2.4-0.1c-1.1,0-2.2-0.1-3.3-0.1c-0.9,0-1.7,0-2.5,0.1l-1.9,0.1v-0.8
	c0.8,0.1,1.5-0.1,2.2-0.6c0.5-0.6,0.8-1.4,0.7-2.1V65.3c0.1-0.9-0.1-1.7-0.6-2.5c-0.6-0.6-1.4-0.9-2.2-0.8v-0.8
	c0.8,0.1,1.5,0.1,2.3,0.1c0.7,0,1.4,0,2.1-0.1c0.6-0.1,1.2-0.2,1.8-0.4v4.7c0.3-0.8,0.7-1.5,1.2-2.2c0.5-0.7,1.1-1.4,1.9-1.8
	C166.7,60.9,167.5,60.7,168.4,60.6z"/>
<path class="st0" d="M180.1,60.6c0.9,0,1.7,0.1,2.6,0.5c0.5,0.2,1.1,0.5,1.5,0.9c0.8,0.7,1.3,0.2,1.5-1.3h0.9
	c-0.1,0.7-0.1,1.5-0.1,2.5c0,1,0,2.3,0,3.9h-0.9c-0.2-0.9-0.4-1.8-0.8-2.7c-0.3-0.8-0.9-1.6-1.6-2.2c-0.8-0.6-1.8-0.9-2.7-0.8
	c-0.8,0-1.6,0.2-2.2,0.7c-0.6,0.5-0.9,1.3-0.9,2.2c0,0.7,0.2,1.4,0.7,1.9c0.5,0.6,1.1,1.1,1.8,1.5c0.7,0.5,1.5,1,2.4,1.5
	c0.9,0.6,1.7,1.2,2.5,1.8c0.7,0.6,1.4,1.3,1.9,2.1c0.5,0.8,0.7,1.7,0.7,2.7c0,1-0.3,2.1-0.9,2.9c-0.6,0.8-1.4,1.4-2.3,1.8
	c-1,0.4-2.1,0.6-3.2,0.6c-0.5,0-1,0-1.6-0.1c-0.5-0.1-1-0.2-1.4-0.4c-0.3-0.1-0.5-0.3-0.8-0.4c-0.3-0.2-0.5-0.4-0.8-0.6
	c-0.2-0.2-0.4-0.2-0.6,0c0,0,0,0,0,0c-0.3,0.4-0.4,0.8-0.4,1.3h-0.9c0-0.8,0.1-1.8,0.1-2.9s0-2.7,0-4.6h0.9c0.1,1.2,0.4,2.5,0.8,3.7
	c0.3,1,0.8,1.8,1.6,2.5c0.8,0.6,1.9,0.9,2.9,0.9c0.5,0,1-0.1,1.5-0.3c0.5-0.2,1-0.6,1.3-1.1c0.4-0.6,0.6-1.4,0.5-2.1
	c0-1-0.4-2-1.2-2.7c-0.9-0.8-1.9-1.5-3-2.2c-0.9-0.6-1.7-1.2-2.5-1.7c-0.7-0.5-1.4-1.2-1.9-2c-1-1.6-1-3.7,0-5.4
	c0.5-0.7,1.2-1.3,2-1.6C178.2,60.8,179.1,60.6,180.1,60.6z"/>
<path class="st0" d="M195.4,80.7c-0.9,0-1.8-0.2-2.7-0.6c-0.7-0.4-1.3-0.9-1.7-1.6c-0.4-0.7-0.6-1.6-0.6-2.4c0-1,0.2-1.9,0.8-2.7
	c0.5-0.7,1.2-1.3,2-1.7c0.8-0.4,1.6-0.8,2.4-1.1l2.5-0.8c0.7-0.2,1.4-0.5,2-0.9c0.5-0.3,0.8-0.8,0.8-1.4v-2.3c0-0.8-0.1-1.7-0.5-2.4
	c-0.3-0.5-0.7-0.9-1.3-1.1c-0.6-0.2-1.2-0.3-1.8-0.3c-0.7,0-1.3,0.1-2,0.3c-0.7,0.2-1.3,0.5-1.7,1.1c1.1,0.2,1.8,1.2,1.8,2.3
	c0,0.6-0.2,1.1-0.6,1.5c-0.4,0.4-1,0.6-1.5,0.6c-0.6,0-1.2-0.2-1.6-0.7c-0.3-0.5-0.5-1-0.5-1.6c0-0.6,0.1-1.1,0.5-1.6
	c0.4-0.4,0.8-0.8,1.2-1.1c0.7-0.4,1.4-0.8,2.2-1c1-0.3,2-0.4,3.1-0.4c0.9,0,1.8,0.1,2.6,0.4c0.7,0.2,1.3,0.5,1.8,1
	c0.6,0.6,1.1,1.3,1.3,2.2c0.2,1,0.3,2.1,0.3,3.1v10.4c0,0.5,0.1,0.9,0.3,1.3c0.2,0.3,0.5,0.4,0.9,0.4c0.3,0,0.5-0.1,0.8-0.2
	c0.3-0.2,0.6-0.4,0.9-0.6l0.4,0.6c-0.5,0.4-1,0.7-1.5,1c-0.6,0.3-1.3,0.4-1.9,0.4c-0.6,0-1.2-0.1-1.8-0.4c-0.5-0.2-0.8-0.6-1.1-1.1
	c-0.3-0.6-0.4-1.2-0.4-1.8c-0.6,1-1.4,1.9-2.4,2.5C197.6,80.4,196.5,80.7,195.4,80.7z M195.4,51.7c0.6,0,1.2,0.1,1.7,0.4
	c0.5,0.2,0.9,0.5,1.3,0.9c0.4,0.3,0.8,0.6,1.2,0.9c0.4,0.3,0.9,0.4,1.4,0.4c0.5,0,1.1-0.2,1.5-0.5c0.6-0.4,1-0.9,1.4-1.5l0.5,0.3
	c-0.3,1.2-0.9,2.2-1.8,3c-0.7,0.6-1.7,0.9-2.6,0.9c-0.6,0-1.2-0.1-1.7-0.4c-0.5-0.2-0.9-0.5-1.3-0.9c-0.4-0.3-0.8-0.6-1.2-0.9
	c-0.9-0.5-2.1-0.5-3,0.1c-0.6,0.4-1,0.9-1.4,1.6l-0.5-0.3c0.3-1.2,0.9-2.2,1.8-3C193.5,52,194.5,51.7,195.4,51.7L195.4,51.7z
	 M196.7,79.2c0.8,0,1.6-0.2,2.3-0.7c0.8-0.6,1.5-1.3,1.9-2.1V69c-0.3,0.5-0.8,0.8-1.3,1.1c-0.6,0.3-1.2,0.6-1.9,0.9
	c-0.7,0.3-1.3,0.6-1.9,1c-0.6,0.4-1.1,0.9-1.5,1.5c-0.4,0.7-0.6,1.6-0.6,2.4c0,0.9,0.2,1.7,0.8,2.4
	C195.1,78.9,195.9,79.2,196.7,79.2L196.7,79.2z"/>
<path class="st0" d="M217.9,60.6c1.5,0,3,0.3,4.3,1c1.3,0.8,2.4,1.9,3.1,3.3c0.8,1.8,1.2,3.8,1.1,5.8c0.1,2-0.3,4-1.1,5.8
	c-0.7,1.4-1.7,2.5-3.1,3.3c-2.7,1.4-5.9,1.4-8.6,0c-1.3-0.7-2.4-1.9-3.1-3.3c-0.8-1.8-1.2-3.8-1.1-5.8c-0.1-2,0.3-4,1.1-5.8
	c0.7-1.4,1.7-2.5,3.1-3.3C214.9,61,216.4,60.6,217.9,60.6z M217.9,61.4c-1.5,0-2.8,0.9-3.5,2.2c-0.9,1.5-1.4,3.9-1.4,7.2
	s0.4,5.7,1.4,7.2c0.9,1.9,3.3,2.7,5.2,1.8c0.8-0.4,1.4-1,1.8-1.8c0.9-1.5,1.4-3.9,1.4-7.2c0-3.3-0.4-5.7-1.4-7.2
	C220.7,62.3,219.4,61.4,217.9,61.4z"/>
<path class="st0" d="M262.5,54v0.7c-0.7,0-1.3,0.1-1.9,0.4c-0.4,0.2-0.8,0.6-0.9,1.1c-0.2,0.7-0.2,1.4-0.2,2.1v22.3h-0.9l-15.7-24.3
	v19.8c0,0.7,0.1,1.4,0.2,2.1c0.2,0.5,0.5,0.9,1,1.1c0.7,0.3,1.4,0.4,2.2,0.4v0.7c-0.4,0-1-0.1-1.8-0.1h-2.1h-1.9
	c-0.6,0-1.2,0-1.6,0.1v-0.7c0.7,0,1.3-0.1,1.9-0.4c0.4-0.2,0.8-0.6,0.9-1.1c0.2-0.7,0.2-1.4,0.2-2.1V57.9c0-0.7,0-1.3-0.2-2
	c-0.1-0.4-0.5-0.7-0.9-0.9c-0.6-0.2-1.3-0.3-1.9-0.3V54l1.6,0.1c0.6,0,1.3,0,1.9,0s1.1,0,1.6,0l1.4-0.1l13.2,20.3v-16
	c0-0.7-0.1-1.4-0.2-2.1c-0.2-0.5-0.5-0.9-1-1.1c-0.7-0.3-1.4-0.4-2.2-0.4V54L257,54c0.7,0,1.4,0,2,0s1.3,0,1.9,0L262.5,54z"/>
<path class="st0" d="M287.7,54v0.7c-0.6,0.2-1.1,0.4-1.5,0.9c-0.7,0.7-1.2,1.5-1.5,2.4l-8.8,22.7h-0.6l-9.1-23.5
	c-0.2-0.7-0.7-1.4-1.3-1.9c-0.4-0.3-0.8-0.5-1.3-0.5V54l1.9,0.1c0.7,0,1.5,0,2.1,0c1,0,1.9,0,2.7,0l2.1-0.1v0.7
	c-0.7,0-1.3,0.1-1.9,0.3c-0.4,0.1-0.7,0.5-0.7,0.9c0,0.7,0.2,1.3,0.4,1.9l7,18.4l-0.6,0.6l6.5-16.9c0.4-1,0.7-2.1,0.7-3.2
	c0-0.7-0.3-1.3-0.9-1.6c-0.7-0.4-1.6-0.6-2.4-0.5V54l2.2,0.1c0.8,0,1.4,0,2.1,0s1.2,0,1.6,0L287.7,54z"/>
<path class="st0" d="M298.5,54v0.7c-0.7,0-1.3,0.1-1.9,0.3c-0.4,0.1-0.7,0.5-0.9,0.9c-0.2,0.7-0.3,1.3-0.2,2v18.6
	c0,0.7,0.1,1.3,0.2,2c0.1,0.4,0.5,0.8,0.9,0.9c0.6,0.2,1.3,0.3,1.9,0.3v0.7c-0.6,0-1.3-0.1-2.1-0.1h-2.6H291c-0.9,0-1.5,0-2.1,0.1
	v-0.7c0.7,0,1.3-0.1,1.9-0.3c0.4-0.1,0.8-0.5,0.9-0.9c0.2-0.7,0.2-1.3,0.2-2V57.9c0-0.7,0-1.3-0.2-2c-0.1-0.4-0.5-0.8-0.9-0.9
	c-0.6-0.2-1.3-0.3-1.9-0.3V54L291,54c0.9,0,1.8,0,2.7,0s1.7,0,2.6,0L298.5,54z"/>
<line class="st1" x1="112.6" y1="66.8" x2="1.2" y2="66.8"/>
<line class="st1" x1="408.8" y1="66.8" x2="304.2" y2="66.8"/>
</svg>
