<?xml version="1.0" encoding="utf-8"?>
<!-- Generator: Adobe Illustrator 24.1.2, SVG Export Plug-In . SVG Version: 6.00 Build 0)  -->
<svg version="1.1" id="Layer_1" xmlns="http://www.w3.org/2000/svg" xmlns:xlink="http://www.w3.org/1999/xlink" x="0px" y="0px"
	 viewBox="0 0 530 103.9" style="enable-background:new 0 0 530 103.9;" xml:space="preserve">
<style type="text/css">
	.st0{fill:#FFFFFF;}
	.st1{fill:#FFFFFF;stroke:#FFFFFF;stroke-width:3;stroke-miterlimit:10;}
</style>
<g id="Layer_3">
	<path class="st0" d="M5.5,12.1H5.3C5.3,10.9,4.9,9.8,4,9C3.2,8.2,2.1,7.7,0.9,7.7H0.1L0,7h5.5L5.5,12.1z M5.5,50.2v5H0l0.1-0.7h0.8
		c1.2,0,2.3-0.4,3.1-1.3c0.8-0.8,1.3-1.9,1.3-3.1H5.5z M9.8,7v48.2H5.3V7H9.8z M13.7,7c2.8-0.1,5.6,0.4,8.2,1.4c2,0.8,3.8,2.2,5.1,4
		c1.2,1.8,1.8,3.9,1.7,6c0,1.8-0.3,3.5-1.1,5.1c-0.7,1.4-1.6,2.6-2.8,3.5c-1.1,0.9-2.3,1.5-3.6,1.9c2.3,0.3,4.4,1.1,6.3,2.4
		c1.7,1.2,3.1,2.8,4.1,4.7c1,1.9,1.4,4.1,1.4,6.2c0.1,2.4-0.6,4.8-1.8,6.8c-1.3,2-3.2,3.6-5.5,4.5c-2.8,1.1-5.7,1.7-8.7,1.6H9.2
		c0-0.8,0.1-1.7,0.1-2.5h7.3c2.1,0.1,4.2-0.4,6.1-1.3c1.6-0.8,2.9-2.1,3.8-3.8c0.9-1.8,1.4-3.9,1.3-5.9c0.1-2.2-0.4-4.4-1.5-6.3
		c-0.9-1.5-2.2-2.8-3.8-3.7c-1.6-0.8-3.3-1.4-5.1-1.7c-1.7-0.3-3.5-0.4-5.2-0.5v-0.6c1.2,0,2.4-0.1,3.5-0.3c1.3-0.2,2.6-0.7,3.7-1.4
		c1.3-0.7,2.3-1.8,3-3.1c0.8-1.6,1.3-3.5,1.2-5.3c0-1.8-0.3-3.7-1.1-5.3c-0.7-1.4-1.9-2.6-3.4-3.3c-1.7-0.8-3.6-1.2-5.5-1.1H7.1
		C7,9,7,8.8,6.9,8.6C6.8,8.3,6.6,7.8,6.4,7H13.7z"/>
	<path class="st0" d="M44.1,18.4h-0.2c0-1-0.4-2-1.1-2.6c-0.7-0.7-1.7-1.1-2.7-1.1h-0.8V14h4.8L44.1,18.4z M44.1,50.9v4.4h-4.8v-0.7
		h0.8c1,0,2-0.4,2.7-1.1c0.7-0.7,1.1-1.6,1.1-2.6H44.1z M48.3,14v41.3h-4.4V13.9L48.3,14z M45.7,9.1c1-1.1,1.9-2.1,2.9-3.1
		s1.9-2,2.9-3s2-1.9,2.9-2.9c0.5,0.6,1,1.1,1.5,1.7c0.5,0.6,0.9,1.2,1.3,1.9l-3.7,2.1c-1.2,0.7-2.5,1.4-3.7,2S47.4,9,46.1,9.6
		L45.7,9.1z M48.1,18.4v-4.5h4.8l-0.1,0.7h-0.7c-1,0-2,0.4-2.7,1.1c-0.7,0.7-1.2,1.7-1.2,2.7H48.1z M48.1,50.9h0.1
		c0,1,0.5,1.9,1.2,2.6c0.7,0.7,1.7,1.1,2.7,1.1h0.7l0.1,0.7h-4.7V50.9z"/>
	<path class="st0" d="M65.6,18.4h-0.2c0-1-0.5-2-1.2-2.7c-0.8-0.7-1.9-1.1-2.9-1h-0.8V14h5.2L65.6,18.4z M65.6,50.9v4.4h-5.2v-0.7
		h0.8c1.1,0,2.1-0.4,2.9-1.1c0.7-0.7,1.2-1.6,1.2-2.6H65.6z M69.7,14v41.3h-4.3V13.9L69.7,14z M74.4,14c1.4,0,2.9,0.1,4.3,0.3
		c1.6,0.2,3.2,0.7,4.7,1.4c1.5,0.7,2.8,1.8,3.8,3.1c1.1,1.6,1.6,3.6,1.5,5.5c0,1.4-0.4,2.7-1.1,3.9c-0.7,1.2-1.7,2.2-2.8,3
		c-1.1,0.8-2.3,1.4-3.7,1.7c2.1,0.2,4.2,0.8,6,1.9c1.6,1,3,2.3,4.1,3.9c1,1.5,1.5,3.3,1.5,5.1c0.2,3.8-1.8,7.3-5.1,9.2
		c-1.6,0.9-3.2,1.5-5,1.9c-1.7,0.4-3.5,0.5-5.2,0.5h-8.4c0-0.7,0.1-1.4,0.1-2.1h8.3c1.8,0,3.6-0.3,5.3-1c1.5-0.6,2.8-1.7,3.8-3.1
		c1-1.6,1.5-3.5,1.4-5.4c0.1-1.9-0.4-3.8-1.4-5.3c-1-1.4-2.3-2.4-3.8-3.1c-1.6-0.7-3.4-1.2-5.2-1.5c-1.9-0.3-3.8-0.4-5.7-0.5v-0.7
		c1.3,0,2.7-0.1,4-0.3c1.4-0.2,2.7-0.6,4-1.1c1.2-0.6,2.2-1.4,3-2.5c0.8-1.3,1.3-2.9,1.2-4.5c0-2.9-0.8-5-2.6-6.3
		c-2-1.4-4.5-2.1-7-2h-7.6c0-0.2-0.1-0.4-0.2-0.6c-0.1-0.3-0.3-0.8-0.4-1.5L74.4,14z"/>
	<path class="st0" d="M104.8,18.4h-0.1c0-1-0.5-2-1.2-2.6c-0.8-0.7-1.8-1.1-2.9-1.1h-0.8V14h5.1L104.8,18.4z M104.8,50.9l0.9,4.4h-6
		v-0.7h1C102.8,54.6,104.6,53,104.8,50.9L104.8,50.9z M109,13.9v41.3h-4.4V13.9H109z M108.8,18.4v-4.5h5.1v0.7h-0.8
		c-1.1,0-2.1,0.4-2.9,1.1c-0.8,0.7-1.2,1.7-1.2,2.7H108.8z M127.5,53.1l-0.1,2.1h-18.5v-2.2L127.5,53.1z M131.4,45.4l-3.8,9.8h-10.5
		l2.3-2.1c1.9,0.1,3.8-0.3,5.5-1c1.3-0.6,2.5-1.6,3.4-2.8c0.9-1.2,1.7-2.6,2.3-4L131.4,45.4z"/>
	<path class="st0" d="M140.8,18.4h-0.2c0-1.1-0.6-2-1.4-2.6c-0.9-0.7-2.1-1.1-3.3-1.1h-1V14h5.9L140.8,18.4z M140.8,50.9v4.4h-5.9
		v-0.7h1c1.2,0,2.4-0.4,3.3-1.1c0.8-0.6,1.3-1.6,1.4-2.6H140.8z M144.9,14v41.3h-4.3V13.9L144.9,14z M144.7,18.4v-4.5h5.9l-0.1,0.7
		h-0.9c-1.2,0-2.3,0.3-3.3,1.1c-0.9,0.6-1.4,1.6-1.4,2.7H144.7z M144.7,50.9h0.2c0.1,1,0.6,2,1.4,2.6c0.9,0.8,2.1,1.1,3.3,1.1h0.9
		l0.1,0.7h-5.9L144.7,50.9z"/>
	<path class="st0" d="M164.1,50.2c-0.5,1-0.5,2.3,0.2,3.2c0.5,0.7,1.3,1.1,2.2,1.1h0.6v0.7h-13.2v-0.7h0.6c1.1,0,2.1-0.4,3-1
		c1.1-0.9,2-2,2.5-3.3H164.1z M177.4,13l0.5,4.8L162.1,55h-4.3l16.3-35c0.5-1.1,0.9-2,1.3-2.9s0.7-1.6,0.9-2.4
		c0.2-0.6,0.4-1.2,0.5-1.9L177.4,13z M185.5,39.2v2.1h-18.3v-2.1H185.5z M177.4,13l19,41.9H191l-14.7-35.7L177.4,13z M189,50.2h5.2
		c0.5,1.3,1.4,2.5,2.6,3.3c0.8,0.6,1.8,1,2.9,1h0.6v0.7h-14.1v-0.7h0.6c0.8,0,1.6-0.5,2.1-1.1C189.5,52.5,189.6,51.2,189,50.2z"/>
	<path class="st0" d="M234.4,6.1c0.8,0,1.6,0,2.4,0.1c0.9,0.1,1.7,0.2,2.5,0.4s1.5,0.3,2.2,0.5c0.5,0.1,1.1,0.3,1.6,0.5v7.7h-0.6
		c0.1-2-0.7-3.9-2.3-5.2c-1.5-1.3-3.5-1.9-5.5-1.9c-2.3-0.1-4.5,0.8-6.1,2.4c-1.5,1.5-2.4,3.5-2.3,5.6c0,1,0.2,2.1,0.6,3.1
		c0.4,1.2,1.2,2.4,2.2,3.2l13.6,12.5c1.3,1.1,2.2,2.5,2.8,4.1c0.4,1.4,0.7,2.8,0.7,4.3c0.1,3.4-1.1,6.8-3.5,9.3
		c-2.5,2.5-5.9,3.8-9.4,3.6c-1.3,0-2.6-0.1-3.9-0.3c-1.5-0.2-2.9-0.6-4.3-1.2c-1.3-0.5-2.5-1.3-3.5-2.2c-0.2-0.9-0.2-1.8-0.2-2.8
		c0-1.2,0.1-2.3,0.3-3.5c0.2-1.1,0.4-2.2,0.8-3.3h0.6c-0.3,2.1,0,4.2,0.9,6.1c0.7,1.7,2,3.1,3.6,4c1.7,0.9,3.5,1.3,5.4,1.2
		c2.4-0.1,4.7-1,6.5-2.7c1.8-1.7,2.8-4.1,2.7-6.6c0-1.2-0.2-2.5-0.7-3.6c-0.5-1.1-1.1-2-2-2.8L226,26.2c-1.3-1.2-2.3-2.6-2.9-4.2
		c-0.5-1.4-0.8-2.8-0.8-4.3c0-1.9,0.5-3.9,1.4-5.6c0.9-1.8,2.4-3.3,4.1-4.4C229.8,6.6,232.1,6,234.4,6.1z M243.1,6.7v1.4h-5.2V6.8
		L243.1,6.7z"/>
	<path class="st0" d="M259,50.2c-0.6,1-0.5,2.3,0.2,3.2c0.5,0.7,1.3,1.1,2.2,1.1h0.6v0.7h-13.2v-0.7h0.6c1.1,0,2.1-0.4,3-1
		c1.2-0.9,2.1-2,2.6-3.3H259z M272.3,13l0.5,4.8L257,55h-4.3L269,20c0.5-1.1,0.9-2,1.3-2.9s0.6-1.6,0.9-2.4c0.2-0.6,0.4-1.2,0.5-1.9
		L272.3,13z M280.4,39.2v2.1h-18.3v-2.1H280.4z M272.3,13l18.9,41.9h-5.4l-14.7-35.7L272.3,13z M284,50.2h5.2
		c0.5,1.3,1.4,2.5,2.5,3.3c0.8,0.6,1.9,1,2.9,1h0.5v0.7h-14.1v-0.7h0.5c0.8,0,1.6-0.5,2.1-1.1C284.4,52.5,284.5,51.2,284,50.2z"/>
	<path class="st0" d="M319.8,13c2,0,4,0.1,6,0.4c1.8,0.3,3.6,0.7,5.3,1.4c1.7,0.6,3.3,1.4,4.8,2.4l1.5,9.7h-0.6
		c-0.5-2.4-1.6-4.7-3.1-6.7c-1.5-1.8-3.5-3.1-5.7-3.9c-2.7-0.9-5.5-1.3-8.3-1.3c-3.2-0.1-6.4,0.7-9.2,2.4c-2.7,1.6-4.8,3.9-6.2,6.8
		c-1.5,3.3-2.3,6.8-2.2,10.4c-0.1,3.6,0.7,7.2,2.2,10.4c1.4,2.8,3.5,5.2,6.2,6.8c2.8,1.6,6,2.4,9.2,2.4c1.9,0,3.7-0.2,5.5-0.6
		c1.8-0.4,3.5-1.1,5.1-2c1.7-0.9,3.2-2,4.6-3.3l0.1-9.2c0.1-0.8-0.2-1.5-0.8-2c-0.7-0.5-1.5-0.7-2.4-0.7h-1v-0.7h12.6v0.7h-1
		c-2.1,0-3.1,0.9-3.1,2.8v8.3c-1.3,1.5-2.7,2.9-4.3,4c-2,1.5-4.2,2.6-6.6,3.4c-2.8,1-5.8,1.4-8.7,1.4c-4.1,0.1-8.2-0.9-11.9-2.7
		c-3.3-1.7-6-4.2-7.9-7.4c-2-3.5-2.9-7.5-2.8-11.5c-0.1-4,0.9-8,2.8-11.6c1.9-3.2,4.6-5.8,7.9-7.4C311.7,13.8,315.7,12.9,319.8,13z"
		/>
	<path class="st0" d="M352.7,18.3h-0.1c0-1-0.4-1.9-1.2-2.6c-0.8-0.7-1.7-1-2.8-1h-1v-0.7h5.9L352.7,18.3z M352.7,50.8l0.8,4.4h-5.9
		v-0.7h1c1,0,2-0.4,2.8-1.1C352.1,52.8,352.6,51.8,352.7,50.8L352.7,50.8z M356.9,13.9v41.3h-4.4V13.9L356.9,13.9z M356.7,50.8h0.2
		c0,1,0.5,1.9,1.2,2.6c0.7,0.7,1.7,1.1,2.8,1.1h0.9l0.1,0.7h-5.9L356.7,50.8z M365,13.9c2,0,3.9,0.2,5.8,0.8
		c1.6,0.4,3.1,1.2,4.4,2.2c1.2,0.9,2.2,2.1,2.8,3.5c0.7,1.5,1,3.1,1,4.7c0,1.9-0.5,3.7-1.4,5.4c-0.9,1.7-2.2,3-3.8,4.1
		c-1.7,1.1-3.6,1.7-5.5,1.9c1,0.5,2,1.2,2.7,2.1c1,1,1.8,2.1,2.6,3.2c1.2,1.6,2.3,3,3.2,4.2c0.9,1.2,1.8,2.3,2.7,3.4
		c1,1.1,1.8,2,2.6,2.8c0.8,0.8,1.6,1.4,2.6,1.8c1,0.5,2.1,0.7,3.3,0.7v0.7H386c-2.1,0.1-4.2-0.3-6.2-1c-1.5-0.5-2.8-1.3-4-2.4
		c-0.9-0.9-1.8-1.8-2.6-2.7c-0.2-0.2-0.6-0.8-1.3-1.8l-2.1-3.1c-0.8-1.1-1.5-2.1-2.1-3s-1-1.4-1.2-1.6c-0.9-1.2-2-2.3-3.2-3.2
		c-1.1-0.9-2.4-1.4-3.8-1.4v-0.7c1.5,0,2.8,0,3.9,0c1.3,0,2.6-0.1,3.9-0.3c1.3-0.2,2.6-0.7,3.6-1.5c1.3-1.1,2.2-2.5,2.7-4.1
		c0.2-0.6,0.3-1.2,0.4-1.8c0.1-0.7,0.1-1.4,0.1-2.1c0-1.2-0.3-2.4-0.7-3.5c-0.4-1-1.1-1.9-1.9-2.6c-0.8-0.7-1.8-1.3-2.9-1.7
		c-1.2-0.4-2.5-0.7-3.7-0.7c-2.2-0.1-4-0.1-5.6-0.1c-0.8,0.1-1.6,0.1-2.4,0c0-0.2-0.1-0.4-0.2-0.6c-0.1-0.3-0.3-0.9-0.5-1.5
		L365,13.9z"/>
	<path class="st0" d="M396.9,50.2c-0.5,1-0.5,2.3,0.2,3.2c0.5,0.7,1.3,1.1,2.2,1.1h0.5v0.7h-13.1v-0.7h0.5c1.1,0,2.1-0.4,3-1
		c1.2-0.9,2.1-2,2.6-3.3H396.9z M410.2,13l0.5,4.8L394.9,55h-4.3l16.3-35c0.5-1.1,0.9-2,1.3-2.9s0.7-1.6,0.9-2.4
		c0.2-0.6,0.4-1.2,0.5-1.9L410.2,13z M418.3,39.2v2.1h-18.3v-2.1H418.3z M410.2,13l18.9,41.9h-5.5L409,19.1L410.2,13z M421.8,50.2
		h5.2c0.5,1.3,1.4,2.5,2.5,3.3c0.8,0.6,1.8,1,2.9,1h0.5v0.7h-14.1v-0.7h0.5c0.8,0,1.6-0.5,2.1-1.1C422.3,52.5,422.4,51.2,421.8,50.2
		z"/>
	<path class="st0" d="M441.5,18.4h-0.1c0-1-0.5-2-1.2-2.7c-0.8-0.7-1.8-1.1-2.8-1.1h-0.8v-0.7h5L441.5,18.4z M441.5,50.7v4.5h-5
		v-0.7h0.9c1,0,2-0.4,2.8-1.1c0.7-0.7,1.1-1.7,1.2-2.7H441.5z M445.8,13.9v41.3h-4.5V13.9L445.8,13.9z M459.5,13.9
		c4.1-0.1,8.1,0.7,11.8,2.5c3.2,1.6,5.9,4,7.6,7.1c1.9,3.4,2.8,7.2,2.7,11c0.1,3.8-0.8,7.6-2.7,11c-1.8,3.1-4.4,5.6-7.6,7.1
		c-3.7,1.8-7.7,2.6-11.8,2.5h-14.7l-0.1-2.1h14.8c5.3,0,9.5-1.7,12.6-5c3-3.3,4.6-7.9,4.6-13.6c0-5.7-1.5-10.3-4.6-13.6
		s-7.2-5-12.6-5H444v-2L459.5,13.9z"/>
	<path class="st0" d="M493.9,50.2c-0.5,1-0.5,2.3,0.2,3.2c0.5,0.7,1.3,1.1,2.2,1.1h0.5v0.7h-13.2v-0.7h0.5c1.1,0,2.1-0.4,3-1
		c1.2-0.9,2.1-2,2.6-3.3H493.9z M507.2,13l0.5,4.8L491.9,55h-4.3l16.3-35c0.5-1.1,0.9-2,1.3-2.9s0.6-1.6,0.9-2.4
		c0.2-0.6,0.4-1.2,0.5-1.9L507.2,13z M515.3,39.2v2.1H497v-2.1H515.3z M507.2,13l18.9,41.9h-5.4L506,19.1L507.2,13z M518.8,50.2h5.2
		c0.5,1.3,1.4,2.5,2.5,3.3c0.8,0.6,1.8,1,2.9,1h0.6v0.7h-14.1v-0.7h0.6c0.8,0,1.6-0.5,2.1-1.1C519.3,52.5,519.4,51.2,518.8,50.2z"/>
	<path class="st0" d="M178.7,69.3v1c-0.7,0.2-1.4,0.6-1.9,1.1c-0.8,0.8-1.5,1.9-1.9,3l-11.3,29.1h-0.8l-11.7-30.2
		c-0.3-0.9-0.9-1.8-1.6-2.4c-0.5-0.4-1.1-0.6-1.7-0.7v-1l2.4,0.1c1,0,1.9,0,2.8,0c1.2,0,2.4,0,3.5,0l2.6-0.1v1
		c-0.8,0-1.7,0.1-2.5,0.4c-0.5,0.2-0.9,0.6-0.9,1.2c0,0.9,0.2,1.7,0.6,2.5l8.9,23.7l-0.8,0.8l8.4-21.7c0.6-1.3,0.9-2.7,1-4.1
		c0-0.8-0.4-1.6-1.1-2.1c-1-0.5-2-0.7-3.1-0.7v-1l2.8,0.1c1,0,1.9,0,2.7,0s1.5,0,2.1,0L178.7,69.3z"/>
	<path class="st0" d="M188.5,77.8c2.5-0.1,4.9,0.8,6.6,2.6c1.6,1.7,2.4,4.4,2.4,8h-17v-0.9h12.4c0.1-1.5-0.1-2.9-0.4-4.3
		c-0.2-1.2-0.8-2.3-1.5-3.2c-0.7-0.8-1.6-1.2-2.7-1.2c-1.6,0.1-3,0.9-3.9,2.2c-1.1,1.5-1.8,3.8-2,7l0.1,0.2c-0.1,0.5-0.1,1-0.1,1.6
		s-0.1,1.2-0.1,1.7c-0.1,1.9,0.3,3.8,1.1,5.6c0.6,1.4,1.5,2.7,2.8,3.6c1,0.8,2.2,1.2,3.5,1.2c0.9,0,1.9-0.1,2.7-0.5
		c0.9-0.3,1.7-0.8,2.4-1.5c0.8-0.8,1.5-1.8,1.9-2.8l1,0.4c-0.4,1.1-1,2.2-1.7,3.1c-1.8,2.2-4.4,3.4-7.3,3.4
		c-2.1,0.1-4.1-0.5-5.9-1.6c-1.7-1.1-3-2.6-3.8-4.4c-0.9-2-1.4-4.2-1.3-6.5c-0.1-2.5,0.3-5,1.2-7.3c0.8-1.9,2.1-3.5,3.8-4.7
		C184.5,78.4,186.5,77.8,188.5,77.8z"/>
	<path class="st0" d="M216.1,77.8c0.8,0,1.6,0.2,2.3,0.5c0.6,0.3,1.2,0.8,1.5,1.4c0.4,0.6,0.6,1.2,0.6,1.9c0,0.8-0.3,1.5-0.7,2.1
		c-0.5,0.6-1.2,0.9-2,0.9c-0.7,0-1.3-0.2-1.8-0.7c-0.5-0.5-0.8-1.1-0.8-1.8c0-0.6,0.2-1.1,0.5-1.6c0.3-0.4,0.7-0.7,1.1-1
		c-0.2-0.3-0.6-0.5-1-0.5c-1,0-1.9,0.3-2.7,0.9c-0.9,0.6-1.6,1.4-2.1,2.3c-0.6,0.9-1,1.9-1.4,2.9c-0.3,0.9-0.5,1.9-0.5,2.9v10.2
		c0,1.6,0.5,2.6,1.4,3.1c1.1,0.6,2.4,0.9,3.7,0.8v1l-3.1-0.1c-1.3,0-2.8-0.1-4.3-0.1c-1.1,0-2.2,0-3.2,0.1l-2.4,0.1v-1
		c1,0.1,2-0.2,2.8-0.7c0.7-0.8,1-1.7,0.8-2.7v-15c0.1-1.1-0.2-2.2-0.8-3.2c-0.8-0.8-1.8-1.1-2.9-1v-1c1,0.1,2,0.2,3,0.2
		c0.9,0,1.8-0.1,2.7-0.2c0.8-0.1,1.6-0.3,2.3-0.5v6c0.4-1,0.9-1.9,1.5-2.8c0.6-1,1.4-1.8,2.4-2.5C213.9,78.2,215,77.8,216.1,77.8z"
		/>
	<path class="st0" d="M231.1,77.8c1.1,0,2.2,0.2,3.3,0.6c0.7,0.3,1.4,0.7,2,1.2c1.1,0.9,1.7,0.3,1.9-1.7h1.1c-0.1,0.9-0.1,2-0.1,3.2
		s-0.1,2.9-0.1,5H238c-0.2-1.2-0.5-2.4-1-3.5c-0.4-1.1-1.1-2-2-2.8c-1-0.8-2.2-1.1-3.5-1.1c-1,0-2,0.3-2.8,0.9
		c-0.8,0.7-1.2,1.7-1.1,2.8c0,0.9,0.3,1.8,0.9,2.5c0.6,0.8,1.4,1.4,2.3,1.9l3,2c1.2,0.7,2.3,1.4,3.3,2.3c0.9,0.7,1.7,1.6,2.4,2.6
		c0.6,1,0.9,2.2,0.9,3.4c0,1.3-0.4,2.6-1.1,3.7c-0.8,1-1.8,1.8-3,2.3c-1.3,0.5-2.6,0.8-4,0.8c-0.7,0-1.3-0.1-2-0.2
		c-0.6-0.1-1.2-0.3-1.8-0.5c-0.3-0.2-0.7-0.4-1-0.6c-0.3-0.2-0.7-0.5-1-0.7c-0.2-0.2-0.6-0.3-0.8-0.1c0,0,0,0-0.1,0.1
		c-0.3,0.5-0.5,1-0.6,1.6h-1.1c0.1-1,0.1-2.3,0.1-3.7s0-3.4,0-5.9h1.1c0.2,1.6,0.5,3.2,1,4.7c0.3,1.2,1,2.3,2,3.2
		c1.1,0.8,2.4,1.2,3.7,1.1c0.7,0,1.3-0.2,1.9-0.4c0.7-0.3,1.3-0.8,1.7-1.4c0.5-0.8,0.7-1.7,0.6-2.7c0-1.3-0.5-2.6-1.5-3.5
		c-1.2-1-2.5-2-3.9-2.8c-1.1-0.7-2.2-1.5-3.2-2.2c-1-0.7-1.8-1.5-2.4-2.5c-1.3-2.1-1.3-4.8,0.1-6.9c0.7-0.9,1.6-1.6,2.6-2
		C228.7,78,229.9,77.8,231.1,77.8z"/>
	<path class="st0" d="M250.8,103.6c-1.2,0-2.3-0.2-3.4-0.7c-0.9-0.5-1.7-1.2-2.2-2.1c-0.5-1-0.8-2-0.8-3.1c0-1.2,0.3-2.4,1-3.5
		c0.7-0.9,1.5-1.6,2.5-2.2c1-0.5,2.1-1,3.2-1.4l3.2-1c0.9-0.3,1.7-0.7,2.5-1.3c0.6-0.4,1-1,1-1.8v-3c0.1-1.1-0.1-2.1-0.6-3.1
		c-0.3-0.7-0.9-1.2-1.6-1.4c-0.7-0.2-1.5-0.4-2.3-0.4c-0.9,0-1.7,0.1-2.6,0.3c-0.9,0.2-1.6,0.7-2.2,1.4c1.4,0.3,2.4,1.6,2.3,3
		c0,0.7-0.2,1.4-0.8,1.9c-0.5,0.5-1.3,0.7-2,0.7c-0.8,0-1.5-0.3-2-0.9c-0.4-0.6-0.7-1.3-0.6-2c0-0.7,0.2-1.4,0.6-2
		c0.5-0.5,1-1,1.6-1.4c0.9-0.6,1.8-1,2.8-1.4c1.3-0.4,2.6-0.6,4-0.6c1.1,0,2.3,0.1,3.4,0.5c0.9,0.3,1.6,0.7,2.3,1.3
		c0.8,0.7,1.4,1.7,1.6,2.8c0.3,1.3,0.4,2.7,0.4,4v13.3c0,0.6,0.1,1.2,0.4,1.7c0.3,0.4,0.7,0.6,1.1,0.5c0.3,0,0.7-0.1,1-0.2
		c0.4-0.2,0.8-0.5,1.1-0.8l0.5,0.8c-0.6,0.5-1.3,0.9-1.9,1.3c-0.8,0.4-1.6,0.5-2.4,0.5c-0.8,0-1.6-0.1-2.3-0.5
		c-0.6-0.3-1.1-0.8-1.4-1.4c-0.3-0.7-0.5-1.6-0.5-2.4c-0.7,1.3-1.8,2.4-3.1,3.2C253.6,103.2,252.2,103.6,250.8,103.6z M250.8,66.4
		c0.8,0,1.5,0.1,2.2,0.5c0.6,0.3,1.1,0.7,1.7,1.1c0.5,0.4,1,0.8,1.5,1.1c0.6,0.3,1.2,0.5,1.8,0.5c0.7,0,1.4-0.2,2-0.6
		c0.7-0.5,1.3-1.2,1.8-2l0.7,0.3c-0.3,1.5-1.1,2.8-2.3,3.8c-1,0.7-2.1,1.1-3.4,1.2c-0.8,0-1.5-0.1-2.2-0.5c-0.6-0.3-1.2-0.7-1.7-1.1
		c-0.5-0.4-1-0.8-1.5-1.1c-1.2-0.7-2.7-0.6-3.8,0.1c-0.7,0.5-1.3,1.2-1.8,2l-0.7-0.3c0.3-1.5,1.2-2.8,2.3-3.8
		C248.4,66.7,249.6,66.4,250.8,66.4L250.8,66.4z M252.5,101.6c1.1,0,2.1-0.3,3-0.9c1-0.7,1.9-1.7,2.5-2.7v-9.4
		c-0.4,0.6-1,1.1-1.7,1.4c-0.7,0.4-1.5,0.7-2.4,1.1c-0.9,0.4-1.7,0.8-2.5,1.3c-0.8,0.5-1.5,1.2-2,2c-0.5,0.9-0.8,2-0.8,3.1
		c-0.1,1.1,0.3,2.2,1,3.1C250.4,101.3,251.4,101.7,252.5,101.6z"/>
	<path class="st0" d="M279.6,77.8c1.9,0,3.8,0.4,5.5,1.3c1.7,1,3,2.4,3.9,4.2c1.1,2.3,1.6,4.9,1.5,7.5c0.1,2.6-0.4,5.1-1.5,7.5
		c-0.8,1.8-2.2,3.2-3.9,4.2c-3.4,1.8-7.6,1.8-11,0c-1.7-1-3.1-2.4-3.9-4.2c-1.1-2.3-1.6-4.9-1.5-7.5c-0.1-2.6,0.4-5.1,1.5-7.5
		c0.8-1.8,2.2-3.3,3.9-4.2C275.8,78.3,277.7,77.8,279.6,77.8z M279.6,78.8c-1.9,0-3.6,1.1-4.5,2.8c-1.2,1.9-1.8,5-1.8,9.3
		s0.6,7.4,1.8,9.2c1.2,2.5,4.2,3.5,6.7,2.3c1-0.5,1.8-1.3,2.3-2.3c1.2-1.9,1.8-5,1.8-9.2s-0.6-7.4-1.8-9.3
		C283.3,80,281.5,78.8,279.6,78.8L279.6,78.8z"/>
	<path class="st0" d="M336.9,69.3v1c-0.8,0-1.7,0.1-2.5,0.5c-0.6,0.3-1,0.8-1.1,1.4c-0.2,0.9-0.3,1.8-0.3,2.7v28.7h-1.1l-20.2-31.2
		v25.3c0,0.9,0.1,1.8,0.3,2.7c0.2,0.6,0.6,1.1,1.3,1.4c0.9,0.3,1.8,0.5,2.8,0.5v1c-0.6-0.1-1.3-0.1-2.3-0.1h-2.6h-2.4
		c-0.8,0-1.5,0-2,0.1v-1c0.9,0,1.7-0.2,2.5-0.5c0.6-0.3,1-0.8,1.1-1.4c0.2-0.9,0.3-1.8,0.3-2.7V74.4c0-0.9-0.1-1.8-0.3-2.6
		c-0.2-0.5-0.6-1-1.1-1.2c-0.8-0.2-1.6-0.4-2.5-0.4v-1l2,0.1c0.8,0,1.6,0,2.4,0s1.4,0,2,0l1.7-0.1l17,26.1V74.8
		c0-0.9-0.1-1.8-0.3-2.7c-0.2-0.6-0.7-1.1-1.3-1.4c-0.9-0.3-1.9-0.5-2.8-0.5v-1l2.3,0.1c0.9,0,1.8,0,2.6,0s1.7,0,2.5,0L336.9,69.3z"
		/>
	<path class="st0" d="M369.2,69.3v1c-0.7,0.2-1.4,0.6-1.9,1.1c-0.8,0.8-1.5,1.9-1.9,3l-11.3,29.1h-0.8l-11.7-30.2
		c-0.3-0.9-0.9-1.8-1.6-2.4c-0.5-0.4-1.1-0.6-1.7-0.7v-1l2.4,0.1c1,0,1.9,0,2.8,0c1.3,0,2.4,0,3.5,0l2.6-0.1v1
		c-0.8,0-1.7,0.1-2.5,0.4c-0.5,0.2-0.9,0.6-0.9,1.2c0,0.9,0.2,1.7,0.6,2.5l8.9,23.7l-0.8,0.8l8.4-21.7c0.6-1.3,0.9-2.7,1-4.1
		c0-0.8-0.4-1.6-1.1-2.1c-1-0.5-2-0.7-3.1-0.7v-1l2.8,0.1c1,0,1.9,0,2.7,0s1.5,0,2.1,0L369.2,69.3z"/>
	<path class="st0" d="M383.1,69.3v1c-0.8,0-1.7,0.1-2.5,0.4c-0.5,0.2-1,0.6-1.1,1.2c-0.2,0.8-0.3,1.7-0.3,2.6v23.8
		c0,0.9,0.1,1.7,0.3,2.6c0.2,0.5,0.6,1,1.1,1.2c0.8,0.2,1.6,0.4,2.5,0.4v1c-0.7-0.1-1.6-0.1-2.8-0.1H377h-3.5c-1.1,0-2,0-2.6,0.1v-1
		c0.8,0,1.7-0.1,2.5-0.4c0.5-0.2,1-0.6,1.1-1.2c0.2-0.8,0.3-1.7,0.3-2.6V74.4c0-0.9-0.1-1.8-0.3-2.6c-0.2-0.5-0.6-1-1.1-1.2
		c-0.8-0.2-1.6-0.4-2.5-0.4v-1l2.6,0.1c1.1,0,2.3,0,3.5,0s2.2,0,3.3,0L383.1,69.3z"/>
	<line class="st1" x1="144.6" y1="85.7" x2="1.6" y2="85.7"/>
	<line class="st1" x1="524.7" y1="85.7" x2="390.4" y2="85.7"/>
</g>
</svg>
