<svg xmlns="http://www.w3.org/2000/svg" viewBox="0 0 412.98 80.96"><defs><style>.cls-1{fill:#3c4249;}.cls-2{fill:none;stroke:#3c4249;stroke-miterlimit:10;stroke-width:3px;}</style></defs><g id="Layer_3" data-name="Layer 3"><path class="cls-1" d="M5.62,10.63H5.46a3.21,3.21,0,0,0-1-2.39A3.34,3.34,0,0,0,2,7.25H1.39l-.06-.54H5.62Zm0,29.73v3.91H1.33l.06-.53H2a3.34,3.34,0,0,0,2.41-1,3.23,3.23,0,0,0,1-2.39ZM9,6.71V44.27H5.46V6.71Zm3.06,0a16,16,0,0,1,6.36,1.13A8.76,8.76,0,0,1,22.31,11a8.2,8.2,0,0,1,1.34,4.69,8.64,8.64,0,0,1-.85,4,8.1,8.1,0,0,1-2.2,2.73,8.46,8.46,0,0,1-2.85,1.48,11.36,11.36,0,0,1,4.91,1.88,9.75,9.75,0,0,1,3.17,3.62,10.66,10.66,0,0,1,1.1,4.86,9.6,9.6,0,0,1-1.45,5.28A9.48,9.48,0,0,1,21.21,43a16.51,16.51,0,0,1-6.78,1.26h-6c0-.64,0-1.28,0-1.93h5.69a10.26,10.26,0,0,0,4.72-1,6.77,6.77,0,0,0,2.95-2.92,9.78,9.78,0,0,0,1-4.62,9.21,9.21,0,0,0-1.15-4.88,7.75,7.75,0,0,0-3-2.85,12.79,12.79,0,0,0-3.94-1.31,25.39,25.39,0,0,0-4.05-.35v-.48a15.53,15.53,0,0,0,2.73-.27,9.1,9.1,0,0,0,2.9-1.07,6.4,6.4,0,0,0,2.31-2.39,8.28,8.28,0,0,0,.91-4.16,8.78,8.78,0,0,0-.89-4.13,5.86,5.86,0,0,0-2.62-2.61,9.53,9.53,0,0,0-4.32-.88H6.86A3.44,3.44,0,0,0,6.72,8c-.08-.27-.22-.69-.4-1.26Z" transform="translate(-1.33 -1.24)"/><path class="cls-1" d="M35.68,15.51h-.17a2.75,2.75,0,0,0-.85-2.06,2.9,2.9,0,0,0-2.1-.84H32v-.53h3.71Zm0,25.33v3.43H32v-.53h.59a2.88,2.88,0,0,0,2.1-.86,2.78,2.78,0,0,0,.85-2ZM39,12.08V44.27H35.51V12.08Zm-2-3.81c.75-.83,1.5-1.64,2.25-2.44s1.51-1.6,2.28-2.37S43,2,43.72,1.24c.4.43.79.87,1.18,1.34a7.94,7.94,0,0,1,1,1.5L43,5.69c-1,.54-1.93,1-2.87,1.53s-1.91,1-2.88,1.42Zm1.93,7.24V12.08h3.7l0,.53H42a2.87,2.87,0,0,0-2.09.84A2.92,2.92,0,0,0,39,15.51Zm0,25.33H39a3,3,0,0,0,.91,2,2.85,2.85,0,0,0,2.09.86h.54l0,.53h-3.7Z" transform="translate(-1.33 -1.24)"/><path class="cls-1" d="M52.42,15.51h-.16a2.88,2.88,0,0,0-.94-2.09A3.25,3.25,0,0,0,49,12.61h-.65v-.53h4Zm0,25.33v3.43h-4v-.53H49a3.15,3.15,0,0,0,2.28-.86,3,3,0,0,0,.94-2Zm3.22-28.76V44.27H52.26V12.08Zm3.7,0a24.15,24.15,0,0,1,3.35.27,13.27,13.27,0,0,1,3.68,1.07,7.48,7.48,0,0,1,2.95,2.41,7.11,7.11,0,0,1,1.18,4.3,5.56,5.56,0,0,1-.86,3,7.79,7.79,0,0,1-2.2,2.34,8.6,8.6,0,0,1-2.84,1.31,11,11,0,0,1,4.64,1.48,9.47,9.47,0,0,1,3.19,3,7.15,7.15,0,0,1,1.18,4,8,8,0,0,1-1.1,4.37,8.1,8.1,0,0,1-2.87,2.77,12.89,12.89,0,0,1-3.86,1.45,20.79,20.79,0,0,1-4.08.42H55.15c0-.53.06-1.07.06-1.6h6.44a10.64,10.64,0,0,0,4.16-.78,6.35,6.35,0,0,0,2.92-2.44,7.56,7.56,0,0,0,1.07-4.19,7,7,0,0,0-1.12-4.16,7.26,7.26,0,0,0-3-2.41,14.17,14.17,0,0,0-4-1.13,32.53,32.53,0,0,0-4.4-.3v-.53a23.18,23.18,0,0,0,3.11-.22,10.12,10.12,0,0,0,3.09-.88,5.82,5.82,0,0,0,2.33-2,6,6,0,0,0,.92-3.51c0-2.26-.67-3.89-2-4.91a8.76,8.76,0,0,0-5.47-1.53H53.44a3.44,3.44,0,0,0-.14-.46c-.09-.27-.2-.65-.35-1.15Z" transform="translate(-1.33 -1.24)"/><path class="cls-1" d="M83,15.51h-.11a2.81,2.81,0,0,0-1-2.06,3.21,3.21,0,0,0-2.26-.84H79v-.53h4Zm0,25.33.7,3.43H79v-.53h.75a3,3,0,0,0,3.11-2.9Zm3.33-28.76V44.27H82.84V12.08Zm-.16,3.43V12.08h4v.53h-.65a3.2,3.2,0,0,0-2.22.84,2.62,2.62,0,0,0-.94,2.06Zm14.59,27.1-.1,1.66H86.17V42.61Zm3-6-3,7.67H92.61l1.82-1.66a10.12,10.12,0,0,0,4.32-.78,7,7,0,0,0,2.66-2.14,15.67,15.67,0,0,0,1.77-3.09Z" transform="translate(-1.33 -1.24)"/><path class="cls-1" d="M111,15.51h-.16a2.73,2.73,0,0,0-1.1-2.06,4,4,0,0,0-2.55-.84h-.76v-.53H111Zm0,25.33v3.43h-4.57v-.53h.76a3.91,3.91,0,0,0,2.55-.86,2.77,2.77,0,0,0,1.1-2Zm3.22-28.76V44.27h-3.38V12.08Zm-.16,3.43V12.08h4.56l-.06.53h-.69a3.92,3.92,0,0,0-2.55.84,2.66,2.66,0,0,0-1.1,2.06Zm0,25.33h.16a2.71,2.71,0,0,0,1.1,2,3.87,3.87,0,0,0,2.55.86h.69l.06.53h-4.56Z" transform="translate(-1.33 -1.24)"/><path class="cls-1" d="M129.21,40.36a2.38,2.38,0,0,0,.16,2.49,2.21,2.21,0,0,0,1.72.89h.43v.53H121.27v-.53h.43A4.17,4.17,0,0,0,124,43a6.14,6.14,0,0,0,2-2.6Zm10.35-29,.38,3.7L127.65,44.11h-3.38L137,16.85c.39-.85.72-1.6,1-2.22s.51-1.25.73-1.85a6.65,6.65,0,0,0,.37-1.45Zm6.34,20.44v1.61H131.68V31.77Zm-6.34-20.44L154.32,44h-4.24L138.65,16.1Zm9.07,29h4.08a5.85,5.85,0,0,0,2,2.6,4.1,4.1,0,0,0,2.25.78h.43v.53h-11v-.53h.43a2.17,2.17,0,0,0,1.66-.89A2.38,2.38,0,0,0,148.63,40.36Z" transform="translate(-1.33 -1.24)"/><path class="cls-1" d="M184,6a17.73,17.73,0,0,1,1.85.11c.66.07,1.3.17,1.93.29s1.2.25,1.72.38a5.74,5.74,0,0,1,1.2.4v6h-.48a5,5,0,0,0-1.77-4,7,7,0,0,0-9.07.37,6,6,0,0,0-1.82,4.32,7.8,7.8,0,0,0,.45,2.39,6.43,6.43,0,0,0,1.69,2.55l10.58,9.76a7.61,7.61,0,0,1,2.14,3.22A11.13,11.13,0,0,1,193,35a10,10,0,0,1-2.71,7.25A9.75,9.75,0,0,1,182.92,45a20.11,20.11,0,0,1-3-.27,14.76,14.76,0,0,1-3.38-.94,8.18,8.18,0,0,1-2.71-1.75,11.6,11.6,0,0,1-.16-2.14,18.58,18.58,0,0,1,.21-2.71,17.53,17.53,0,0,1,.59-2.6h.49a9,9,0,0,0,.69,4.77,6.84,6.84,0,0,0,2.82,3.09,7.78,7.78,0,0,0,4.22.94,8.06,8.06,0,0,0,5.07-2.07,6.56,6.56,0,0,0,2.12-5.12,7.09,7.09,0,0,0-.54-2.82,6.15,6.15,0,0,0-1.56-2.18l-10.3-9.55a8.29,8.29,0,0,1-2.25-3.3,10,10,0,0,1-.65-3.35,9.51,9.51,0,0,1,1.07-4.35,8.64,8.64,0,0,1,3.2-3.41A9.69,9.69,0,0,1,184,6Zm6.7.54V7.62h-4.07V6.5Z" transform="translate(-1.33 -1.24)"/><path class="cls-1" d="M203.15,40.36a2.38,2.38,0,0,0,.17,2.49,2.21,2.21,0,0,0,1.71.89h.43v.53H195.21v-.53h.43A4.2,4.2,0,0,0,198,43a6.22,6.22,0,0,0,2-2.6Zm10.36-29,.38,3.7L201.6,44.11h-3.38l12.72-27.26c.39-.85.72-1.6,1-2.22s.51-1.25.72-1.85a6.79,6.79,0,0,0,.38-1.45Zm6.33,20.44v1.61H205.62V31.77Zm-6.33-20.44L228.27,44H224L212.6,16.1Zm9.07,29h4.08a5.91,5.91,0,0,0,2,2.6,4.13,4.13,0,0,0,2.26.78h.43v.53h-11v-.53h.42a2.18,2.18,0,0,0,1.67-.89A2.4,2.4,0,0,0,222.58,40.36Z" transform="translate(-1.33 -1.24)"/><path class="cls-1" d="M250.54,11.33a28.48,28.48,0,0,1,4.64.35,21.94,21.94,0,0,1,4.13,1.07A19.34,19.34,0,0,1,263,14.6l1.18,7.57h-.48A12.67,12.67,0,0,0,261.3,17a10.11,10.11,0,0,0-4.38-3,18.63,18.63,0,0,0-6.44-1,13.59,13.59,0,0,0-7.16,1.85,12.44,12.44,0,0,0-4.8,5.26,17.8,17.8,0,0,0-1.72,8.13,17.84,17.84,0,0,0,1.72,8.1,12.38,12.38,0,0,0,4.83,5.28,13.73,13.73,0,0,0,7.19,1.86,18.14,18.14,0,0,0,4.29-.49,15.47,15.47,0,0,0,3.94-1.53,16.52,16.52,0,0,0,3.57-2.65l.06-7.14a1.77,1.77,0,0,0-.62-1.56,3,3,0,0,0-1.85-.53h-.75V29H269v.54h-.75c-1.61,0-2.42.71-2.42,2.14V38.1a18.07,18.07,0,0,1-3.38,3.17A19.47,19.47,0,0,1,257.33,44,19.87,19.87,0,0,1,250.54,45a20.39,20.39,0,0,1-9.26-2.1,14.85,14.85,0,0,1-6.14-5.79,17.4,17.4,0,0,1-2.2-9,17.53,17.53,0,0,1,2.2-9,14.81,14.81,0,0,1,6.17-5.79A19.9,19.9,0,0,1,250.54,11.33Z" transform="translate(-1.33 -1.24)"/><path class="cls-1" d="M276.13,15.46H276a2.89,2.89,0,0,0-.91-2,3,3,0,0,0-2.15-.81h-.75v-.53h4.56Zm0,25.38.65,3.43h-4.56v-.53H273a2.94,2.94,0,0,0,2.15-.86,3,3,0,0,0,.91-2Zm3.28-28.76V44.27H276V12.08Zm-.16,28.76h.16a3,3,0,0,0,.91,2,2.92,2.92,0,0,0,2.15.86h.69l.06.53H278.6Zm6.44-28.76a15.84,15.84,0,0,1,4.53.59,9.84,9.84,0,0,1,3.44,1.72,7.56,7.56,0,0,1,2.17,2.73,9,9,0,0,1-.32,7.84,8.92,8.92,0,0,1-3,3.16,9.62,9.62,0,0,1-4.32,1.5,6.9,6.9,0,0,1,2.12,1.67,23.11,23.11,0,0,1,2.06,2.52c.93,1.25,1.77,2.33,2.5,3.25s1.46,1.78,2.17,2.6,1.44,1.54,2.07,2.15a7.15,7.15,0,0,0,2,1.42,6,6,0,0,0,2.55.51v.53h-1.67a13.35,13.35,0,0,1-4.85-.75,9.61,9.61,0,0,1-3.09-1.85,23.27,23.27,0,0,1-2-2.12c-.14-.18-.47-.63-1-1.37l-1.69-2.38-1.66-2.34c-.51-.7-.81-1.12-.92-1.26a13.86,13.86,0,0,0-2.47-2.49,4.65,4.65,0,0,0-2.95-1.1v-.54q1.73,0,3.06,0c1,0,2-.12,3-.24a5.91,5.91,0,0,0,2.81-1.16,6.27,6.27,0,0,0,2.07-3.22,6.65,6.65,0,0,0,.32-1.39,9.2,9.2,0,0,0,.06-1.67,7.47,7.47,0,0,0-.57-2.68,6,6,0,0,0-1.45-2,6.79,6.79,0,0,0-2.22-1.34,9.29,9.29,0,0,0-2.9-.54c-1.68-.07-3.15-.08-4.4,0a11.09,11.09,0,0,1-1.88,0s-.05-.19-.13-.45l-.41-1.21Z" transform="translate(-1.33 -1.24)"/><path class="cls-1" d="M310.58,40.36a2.38,2.38,0,0,0,.17,2.49,2.21,2.21,0,0,0,1.71.89h.43v.53H302.64v-.53h.43a4.2,4.2,0,0,0,2.31-.78,6.14,6.14,0,0,0,2-2.6Zm10.36-29,.38,3.7L309,44.11h-3.38l12.72-27.26c.39-.85.72-1.6,1-2.22s.51-1.25.72-1.85a6.79,6.79,0,0,0,.38-1.45Zm6.33,20.44v1.61H313.05V31.77Zm-6.33-20.44L335.7,44h-4.24L320,16.1Zm9.07,29h4.08a5.91,5.91,0,0,0,2,2.6,4.13,4.13,0,0,0,2.26.78h.43v.53h-11v-.53h.43a2.18,2.18,0,0,0,1.66-.89A2.4,2.4,0,0,0,330,40.36Z" transform="translate(-1.33 -1.24)"/><path class="cls-1" d="M345.3,15.57h-.1a3,3,0,0,0-.94-2.12,3.05,3.05,0,0,0-2.18-.84h-.64v-.53h3.86Zm0,25.22v3.48h-3.86v-.53h.7a2.89,2.89,0,0,0,2.15-.89,3.12,3.12,0,0,0,.91-2.06Zm3.39-28.71V44.27H345.2V12.08Zm10.67,0A20.28,20.28,0,0,1,368.54,14a13.92,13.92,0,0,1,6,5.55,17,17,0,0,1,2.09,8.62,16.81,16.81,0,0,1-2.09,8.58,14.12,14.12,0,0,1-6,5.56,20.15,20.15,0,0,1-9.18,2H347.93l-.1-1.6h11.53q6.22,0,9.8-3.9t3.57-10.59q0-6.72-3.57-10.6t-9.8-3.89H347.29V12.08Z" transform="translate(-1.33 -1.24)"/><path class="cls-1" d="M386.14,40.36a2.4,2.4,0,0,0,.16,2.49,2.21,2.21,0,0,0,1.72.89h.43v.53H378.2v-.53h.43a4.2,4.2,0,0,0,2.31-.78,6.2,6.2,0,0,0,2-2.6Zm10.36-29,.37,3.7L384.58,44.11H381.2l12.72-27.26c.39-.85.73-1.6,1-2.22s.51-1.25.73-1.85a6.65,6.65,0,0,0,.37-1.45Zm6.33,20.44v1.61H388.61V31.77ZM396.5,11.33,411.25,44H407L395.58,16.1Zm9.07,29h4.07a5.85,5.85,0,0,0,2,2.6,4.13,4.13,0,0,0,2.25.78h.43v.53h-11v-.53h.43a2.2,2.2,0,0,0,1.67-.89A2.4,2.4,0,0,0,405.57,40.36Z" transform="translate(-1.33 -1.24)"/><path class="cls-1" d="M140.55,55.2v.74a3.52,3.52,0,0,0-1.51.86,6,6,0,0,0-1.44,2.4l-8.79,22.66h-.6l-9.12-23.52a4,4,0,0,0-1.27-1.89,2.9,2.9,0,0,0-1.31-.51V55.2l1.85.07c.73,0,1.45,0,2.15,0,1,0,1.88,0,2.73,0l2.05-.07v.74a6.15,6.15,0,0,0-1.92.3,1,1,0,0,0-.71.92,4.62,4.62,0,0,0,.43,1.92L130,77.52l-.59.64L136,61.25a8.42,8.42,0,0,0,.75-3.16,1.78,1.78,0,0,0-.86-1.62,5,5,0,0,0-2.39-.53V55.2l2.2.07c.75,0,1.45,0,2.1,0s1.18,0,1.61,0Z" transform="translate(-1.33 -1.24)"/><path class="cls-1" d="M148.22,61.89a6.67,6.67,0,0,1,5.14,2c1.24,1.33,1.85,3.41,1.85,6.23H142l0-.71h9.65a12.31,12.31,0,0,0-.3-3.39,5.91,5.91,0,0,0-1.17-2.48,2.61,2.61,0,0,0-2.08-.94,3.81,3.81,0,0,0-3,1.72,10.29,10.29,0,0,0-1.59,5.46l.11.15c0,.37-.08.79-.11,1.23s0,.9,0,1.35a10.6,10.6,0,0,0,.83,4.38,6.63,6.63,0,0,0,2.15,2.78,4.62,4.62,0,0,0,2.75,1,6.27,6.27,0,0,0,2.13-.36,5.31,5.31,0,0,0,1.87-1.18,7,7,0,0,0,1.49-2.2l.75.3A7.64,7.64,0,0,1,154,79.58a7.36,7.36,0,0,1-2.36,1.89,7.18,7.18,0,0,1-3.29.73A8.3,8.3,0,0,1,143.75,81a8,8,0,0,1-2.95-3.42,11.62,11.62,0,0,1-1-5,14.09,14.09,0,0,1,1-5.66,8.38,8.38,0,0,1,3-3.67A7.74,7.74,0,0,1,148.22,61.89Z" transform="translate(-1.33 -1.24)"/><path class="cls-1" d="M169.69,61.89a3.73,3.73,0,0,1,1.77.41,3.29,3.29,0,0,1,1.2,1.07,2.59,2.59,0,0,1,.43,1.47,2.5,2.5,0,0,1-.58,1.65,1.91,1.91,0,0,1-1.55.71,2.12,2.12,0,0,1-1.39-.5,1.78,1.78,0,0,1-.59-1.44,1.94,1.94,0,0,1,.39-1.22,3.16,3.16,0,0,1,.88-.8.91.91,0,0,0-.79-.38,3.61,3.61,0,0,0-2.13.69,6.26,6.26,0,0,0-1.65,1.78,10.14,10.14,0,0,0-1,2.3,7.75,7.75,0,0,0-.38,2.26v7.93a2.59,2.59,0,0,0,1.07,2.45,5.81,5.81,0,0,0,2.9.62v.78l-2.43-.09q-1.58-.06-3.33-.06c-.85,0-1.69,0-2.53.06l-1.88.09v-.78a3.36,3.36,0,0,0,2.18-.56,2.74,2.74,0,0,0,.66-2.13V66.49a4.19,4.19,0,0,0-.6-2.49,2.67,2.67,0,0,0-2.24-.8v-.79a23.08,23.08,0,0,0,2.31.12,15.34,15.34,0,0,0,2.08-.14,9.46,9.46,0,0,0,1.81-.39v4.68a10.21,10.21,0,0,1,1.18-2.19,7.23,7.23,0,0,1,1.85-1.85A4.14,4.14,0,0,1,169.69,61.89Z" transform="translate(-1.33 -1.24)"/><path class="cls-1" d="M181.39,61.89a6,6,0,0,1,2.55.49,7.45,7.45,0,0,1,1.53.89c.82.68,1.32.23,1.49-1.34h.87c-.06.7-.09,1.52-.12,2.48s0,2.25,0,3.88h-.85a12.79,12.79,0,0,0-.77-2.7,5.29,5.29,0,0,0-1.59-2.15,4.24,4.24,0,0,0-2.73-.84,3.31,3.31,0,0,0-2.19.73,2.62,2.62,0,0,0-.88,2.15,3,3,0,0,0,.67,1.93,7.8,7.8,0,0,0,1.76,1.49c.73.46,1.51,1,2.36,1.52A27.68,27.68,0,0,1,186,72.25a8.1,8.1,0,0,1,1.85,2.06,4.94,4.94,0,0,1,.69,2.65,4.54,4.54,0,0,1-.9,2.88,5.58,5.58,0,0,1-2.33,1.76,8.16,8.16,0,0,1-3.16.6,9.43,9.43,0,0,1-1.55-.13,7.36,7.36,0,0,1-1.41-.4,6.72,6.72,0,0,1-.76-.44c-.27-.18-.52-.37-.77-.57a.44.44,0,0,0-.67,0,2.48,2.48,0,0,0-.45,1.26h-.86c0-.8.08-1.77.11-2.92s0-2.67,0-4.56h.86a20.65,20.65,0,0,0,.75,3.66A5,5,0,0,0,179,80.57a4.39,4.39,0,0,0,2.92.88,3.67,3.67,0,0,0,1.51-.34A3,3,0,0,0,184.72,80a3.7,3.7,0,0,0,.52-2.09,3.45,3.45,0,0,0-1.19-2.7,25.56,25.56,0,0,0-3-2.2c-.9-.58-1.74-1.15-2.53-1.72a7.79,7.79,0,0,1-1.9-2,5.19,5.19,0,0,1,0-5.36,4.46,4.46,0,0,1,2-1.58A7.48,7.48,0,0,1,181.39,61.89Z" transform="translate(-1.33 -1.24)"/><path class="cls-1" d="M196.73,81.94a5.8,5.8,0,0,1-2.66-.58,3.94,3.94,0,0,1-1.7-1.63,4.91,4.91,0,0,1-.58-2.43,4.36,4.36,0,0,1,.77-2.69,5.74,5.74,0,0,1,2-1.69A15.59,15.59,0,0,1,197,71.86l2.53-.83a7.63,7.63,0,0,0,2-.91,1.61,1.61,0,0,0,.77-1.39V66.42a5,5,0,0,0-.47-2.4,2.33,2.33,0,0,0-1.25-1.1,5.16,5.16,0,0,0-1.76-.28,8.65,8.65,0,0,0-2,.26,3,3,0,0,0-1.7,1.08,2.24,2.24,0,0,1,1.75,2.29,1.91,1.91,0,0,1-.59,1.47,2.21,2.21,0,0,1-1.54.55,1.85,1.85,0,0,1-1.59-.7,2.61,2.61,0,0,1-.5-1.55,2.43,2.43,0,0,1,.48-1.57,6.18,6.18,0,0,1,1.24-1.12,8.21,8.21,0,0,1,2.22-1,10.17,10.17,0,0,1,3.09-.43,8.42,8.42,0,0,1,2.62.36,4.54,4.54,0,0,1,1.79,1,4.21,4.21,0,0,1,1.27,2.19,13.81,13.81,0,0,1,.3,3.09V78.94a2.52,2.52,0,0,0,.28,1.35,1,1,0,0,0,.88.41,1.67,1.67,0,0,0,.79-.19,5.41,5.41,0,0,0,.9-.59l.41.63a12.83,12.83,0,0,1-1.5,1,4,4,0,0,1-1.91.4,3.8,3.8,0,0,1-1.79-.38,2.42,2.42,0,0,1-1.07-1.1,4.36,4.36,0,0,1-.35-1.85,7.07,7.07,0,0,1-2.41,2.5A6.14,6.14,0,0,1,196.73,81.94Zm0-29a3.61,3.61,0,0,1,1.72.38,6.59,6.59,0,0,1,1.29.86,10.61,10.61,0,0,0,1.2.86,2.71,2.71,0,0,0,1.44.37,2.76,2.76,0,0,0,1.51-.47,4.44,4.44,0,0,0,1.37-1.51l.52.26A5.41,5.41,0,0,1,204,56.65a4.27,4.27,0,0,1-2.62.9,3.78,3.78,0,0,1-1.74-.37,6.39,6.39,0,0,1-1.31-.88,8.68,8.68,0,0,0-1.19-.88,2.85,2.85,0,0,0-3,.09,4.45,4.45,0,0,0-1.36,1.56l-.53-.27a5.36,5.36,0,0,1,1.82-3A4.36,4.36,0,0,1,196.76,53Zm1.31,27.49a4.1,4.1,0,0,0,2.3-.71,6.63,6.63,0,0,0,1.93-2.13V70.27A3.44,3.44,0,0,1,201,71.33c-.58.29-1.2.58-1.87.86a14.72,14.72,0,0,0-1.93,1,4.87,4.87,0,0,0-1.51,1.52,4.42,4.42,0,0,0-.6,2.43,3.47,3.47,0,0,0,.8,2.39A2.8,2.8,0,0,0,198.07,80.44Z" transform="translate(-1.33 -1.24)"/><path class="cls-1" d="M219.2,61.89a8.75,8.75,0,0,1,4.3,1,7.47,7.47,0,0,1,3.05,3.29,12.87,12.87,0,0,1,1.14,5.83,12.8,12.8,0,0,1-1.14,5.82,7.52,7.52,0,0,1-3.05,3.27,9.29,9.29,0,0,1-8.58,0,7.45,7.45,0,0,1-3.07-3.27,12.8,12.8,0,0,1-1.14-5.82,12.87,12.87,0,0,1,1.14-5.83,7.4,7.4,0,0,1,3.07-3.29A8.78,8.78,0,0,1,219.2,61.89Zm0,.75a4,4,0,0,0-3.5,2.2c-.91,1.48-1.36,3.88-1.36,7.22s.45,5.74,1.36,7.2a3.89,3.89,0,0,0,7,0q1.37-2.19,1.36-7.2c0-3.34-.45-5.74-1.36-7.22A4,4,0,0,0,219.2,62.64Z" transform="translate(-1.33 -1.24)"/><path class="cls-1" d="M263.82,55.2v.74a4.65,4.65,0,0,0-1.93.38A1.69,1.69,0,0,0,261,57.4a7.83,7.83,0,0,0-.22,2.13V81.86h-.86L244.22,57.59V77.34a7.36,7.36,0,0,0,.24,2.11,1.7,1.7,0,0,0,1,1.08,6.31,6.31,0,0,0,2.18.4v.74c-.44,0-1-.08-1.75-.09l-2.06,0-1.89,0c-.63,0-1.17,0-1.59.09v-.74a5.13,5.13,0,0,0,1.93-.4,1.67,1.67,0,0,0,.88-1.08,7.86,7.86,0,0,0,.22-2.11V59.16a6.84,6.84,0,0,0-.22-2,1.45,1.45,0,0,0-.88-.9,6.65,6.65,0,0,0-1.93-.28V55.2l1.59.07c.64,0,1.27,0,1.89,0s1.07,0,1.57,0l1.35-.07,13.2,20.34v-16a7.33,7.33,0,0,0-.24-2.13,1.75,1.75,0,0,0-1-1.08,5.73,5.73,0,0,0-2.18-.38V55.2l1.77.07c.74,0,1.42,0,2,0s1.29,0,1.93,0Z" transform="translate(-1.33 -1.24)"/><path class="cls-1" d="M289,55.2v.74a3.5,3.5,0,0,0-1.52.86A6.26,6.26,0,0,0,286,59.2l-8.79,22.66h-.59l-9.13-23.52a3.92,3.92,0,0,0-1.27-1.89,2.86,2.86,0,0,0-1.31-.51V55.2l1.85.07c.74,0,1.45,0,2.15,0,1,0,1.88,0,2.73,0l2.06-.07v.74a6.22,6.22,0,0,0-1.93.3,1.05,1.05,0,0,0-.71.92,4.79,4.79,0,0,0,.43,1.92l7,18.44-.6.64,6.51-16.91a8.56,8.56,0,0,0,.74-3.16,1.78,1.78,0,0,0-.86-1.62,4.94,4.94,0,0,0-2.39-.53V55.2l2.21.07c.75,0,1.44,0,2.09,0s1.19,0,1.61,0Z" transform="translate(-1.33 -1.24)"/><path class="cls-1" d="M299.83,55.2v.74a6.51,6.51,0,0,0-1.92.28,1.43,1.43,0,0,0-.88.9,6.77,6.77,0,0,0-.23,2V77.71a6.76,6.76,0,0,0,.23,2,1.34,1.34,0,0,0,.88.9,7.54,7.54,0,0,0,1.92.3v.74c-.57,0-1.29-.08-2.15-.09l-2.6,0-2.73,0c-.85,0-1.53,0-2.06.09v-.74a7.63,7.63,0,0,0,1.93-.3,1.34,1.34,0,0,0,.88-.9,6.82,6.82,0,0,0,.22-2V59.16a6.84,6.84,0,0,0-.22-2,1.43,1.43,0,0,0-.88-.9,6.59,6.59,0,0,0-1.93-.28V55.2l2.06.07c.85,0,1.76,0,2.73,0s1.74,0,2.6,0Z" transform="translate(-1.33 -1.24)"/><line class="cls-2" x1="112.62" y1="66.75" x2="1.22" y2="66.75"/><line class="cls-2" x1="408.84" y1="66.75" x2="304.2" y2="66.75"/></g></svg>