<svg id="Layer_2" data-name="Layer 2" xmlns="http://www.w3.org/2000/svg" viewBox="0 0 134.26 134.26"><defs><style>.cls-1{fill:#9b814b;}</style></defs><path class="cls-1" d="M135.28,77.92c-1,2.25-2.73,2.93-5.14,2.92q-18.73-.12-37.47,0A20.24,20.24,0,0,0,73.3,94.58a24,24,0,0,0-1.15,7.19q-.16,18.54,0,37.08c0,2.41-.66,4.16-2.91,5.14h-2.1c-2.25-1-2.93-2.73-2.92-5.14.08-12.44.06-24.9,0-37.34A20.25,20.25,0,0,0,50.46,82a24.5,24.5,0,0,0-7.31-1.16c-12.67-.11-25.34,0-38,0a3.81,3.81,0,0,1-3.64-2.11,3.7,3.7,0,0,1,.27-4.08A4,4,0,0,1,5.4,72.93q19.06,0,38.13,0A20.29,20.29,0,0,0,63.27,58.41a23.86,23.86,0,0,0,.93-6.57c.08-12.67,0-25.33,0-38A3.93,3.93,0,0,1,72,12.67a6.81,6.81,0,0,1,.12,1.69c0,12.58,0,25.16,0,37.74A20.43,20.43,0,0,0,88.9,72.57a24.19,24.19,0,0,0,4.42.36c12.32,0,24.64,0,37,0,2.38,0,4,.74,5,2.91Z" transform="translate(-1.02 -9.73)"/><path class="cls-1" d="M55,58.2a12.71,12.71,0,0,1-5.6,5.54L38.2,52.5c-1.51-1.52-3.06-3-4.51-4.56a3.9,3.9,0,0,1,.09-5.45,3.85,3.85,0,0,1,5.44-.12C44.5,47.58,49.71,52.87,55,58.2Z" transform="translate(-1.02 -9.73)"/><path class="cls-1" d="M86.86,63.71a12.43,12.43,0,0,1-5.56-5.59L93.93,45.51c1-1,2-2.07,3.06-3a4,4,0,0,1,5.55,0,3.86,3.86,0,0,1,.12,5.44C97.45,53.21,92.17,58.42,86.86,63.71Z" transform="translate(-1.02 -9.73)"/><path class="cls-1" d="M49.47,90A12.62,12.62,0,0,1,55,95.62l-5.75,5.74q-4.86,4.88-9.73,9.73a3.9,3.9,0,0,1-4.31,1.07A3.73,3.73,0,0,1,32.68,109a3.69,3.69,0,0,1,1.06-3.24C39,100.5,44.18,95.3,49.47,90Z" transform="translate(-1.02 -9.73)"/><path class="cls-1" d="M7.62,95.27a3.94,3.94,0,0,1,4.09-3.71,3.93,3.93,0,1,1-4.09,3.71Z" transform="translate(-1.02 -9.73)"/><path class="cls-1" d="M89.1,30.77a4.09,4.09,0,0,1-3.84-4.17,4.14,4.14,0,0,1,4-3.71A4.07,4.07,0,0,1,93.18,27,4,4,0,0,1,89.1,30.77Z" transform="translate(-1.02 -9.73)"/><path class="cls-1" d="M49.89,120.35a4.06,4.06,0,0,1,3.8,4.19,4,4,0,0,1-7.92-.48A4,4,0,0,1,49.89,120.35Z" transform="translate(-1.02 -9.73)"/><path class="cls-1" d="M48.45,34.84A4,4,0,0,1,52.36,31a4.14,4.14,0,0,1,4,4.07,3.95,3.95,0,1,1-7.89-.26Z" transform="translate(-1.02 -9.73)"/><path class="cls-1" d="M81.34,95.62A12,12,0,0,1,87.1,90c.85.92,1.72,2,2.67,2.9q6.28,6.33,12.59,12.61a3.93,3.93,0,0,1,1.1,4.31,3.41,3.41,0,0,1-3.3,2.54,4.87,4.87,0,0,1-3.08-1C91.78,106.15,86.6,100.89,81.34,95.62Z" transform="translate(-1.02 -9.73)"/><path class="cls-1" d="M81.85,108.86a3.93,3.93,0,1,1-4,3.83A3.92,3.92,0,0,1,81.85,108.86Z" transform="translate(-1.02 -9.73)"/></svg>