<svg id="Layer_1" data-name="Layer 1" xmlns="http://www.w3.org/2000/svg" viewBox="0 0 120.64 150.98"><defs><style>.cls-1{fill:#9b814b;}</style></defs><path class="cls-1" d="M98.7,93.8c-2.28-4.7-4.15-9.14-6.53-13.29-3.48-6.05-7.25-11.93-11-17.79A5.8,5.8,0,0,0,74,60.62a5.44,5.44,0,0,0-3.69,6c.35,3.87,1,7.73,1.69,11.55.43,2.33,1.24,4.58,1.86,6.87.09.35.17.88,0,1.09-2.52,2.77-2.7,6.24-2.88,9.68-.12,2.27,0,4.56,0,7H66.1c0-.55,0-1.14,0-1.71-.29-3.73-.56-7.47-.94-11.18a5.47,5.47,0,0,0-1-2.83c-1.18-1.4-.72-2.67-.41-4.17,1.09-5.35,2.17-10.7,2.93-16.1a5.65,5.65,0,0,0-3.95-6.57c-2.72-.93-5.3,0-7.23,2.72A159.54,159.54,0,0,0,39.88,90.51c-.26.58-.54,1.16-.89,1.9a32.36,32.36,0,0,1-8.51-9.92c-3.4-6.2-4.44-12.95-4.69-19.91A43.63,43.63,0,0,1,112.31,53c2.16,12.15.12,23.51-7.22,33.62A96.24,96.24,0,0,1,98.7,93.8Z" transform="translate(-8.31 -0.62)"/><path class="cls-1" d="M59.29,88.42a6.92,6.92,0,0,1,1.82,5c.1,6.28.29,12.58-.14,18.83-.54,7.87-1.67,15.71-2.51,23.56A11.24,11.24,0,0,1,56,142.2c-2.29,2.7-4.32,5.63-6.57,8.37a3.08,3.08,0,0,1-2.14,1c-7.49-.26-15-.62-22.47-1a2.54,2.54,0,0,1-2-1c-.22-.5.26-1.52.73-2.05,3.12-3.53,6.2-7.12,9.52-10.45a16.18,16.18,0,0,0,4.75-11.45c.23-6.23.73-12.44,1.2-18.66a13,13,0,0,1,.86-3A153.35,153.35,0,0,1,59.1,66.47c.21-.29.36-.68.64-.84.57-.3,1.28-.75,1.79-.62s.85,1,.81,1.56a70,70,0,0,1-1,7.06c-.59,3-1.34,5.92-2.11,8.85a2.6,2.6,0,0,1-1.13,1.63,9.26,9.26,0,0,0-5.27,5.79,44.81,44.81,0,0,0-2.28,9.37c-.58,5.08-.65,10.22-1,15.33-.07,1.13,0,2.14,1.27,2.64a2.3,2.3,0,0,0,3.36-2c.32-5,.56-10,.87-15a22.92,22.92,0,0,1,2.77-10,13.24,13.24,0,0,1,.85-1.26A3.86,3.86,0,0,1,59.29,88.42Z" transform="translate(-8.31 -0.62)"/><path class="cls-1" d="M87.77,108.89c-.48-5.86-.58-11.75-2.42-17.41-1-3.17-2.48-6-5.8-7.38a2.1,2.1,0,0,1-1-1.38q-1.68-8.1-3.18-16.21c-.08-.47.42-1.45.78-1.52a2.06,2.06,0,0,1,1.78.64c2.38,3.52,4.79,7,6.94,10.7A138.73,138.73,0,0,1,98,105.62c.76,2.46.7,5.19.87,7.81.36,5.3.62,10.62.92,15.93a8.9,8.9,0,0,0,2.64,6c3.9,4,7.77,8,11.57,12.08a3.33,3.33,0,0,1,.84,2.34c0,.34-1.29.8-2,.83-7.44.35-14.88.65-22.33.85a3.1,3.1,0,0,1-2.15-1c-2.51-3.06-5-6.12-7.26-9.37a11.69,11.69,0,0,1-1.72-4.9c-1.67-12.51-3.27-25-3.16-37.68a54,54,0,0,1,.86-7.68,2,2,0,0,1,1.23-1.4,2.15,2.15,0,0,1,1.57,1.06c1.92,3.34,2.38,7.06,2.58,10.82.23,4.46.43,8.91.66,13.37.08,1.8,1,2.86,2.5,2.83s2.18-1.11,2.16-2.9S87.77,110.77,87.77,108.89Z" transform="translate(-8.31 -0.62)"/><path class="cls-1" d="M94.31,18.27c-2.16,0-3.48-1.88-2.62-3.54a49.63,49.63,0,0,1,3.81-6c.75-1,2-1,3-.29a2.08,2.08,0,0,1,.82,2.91c-1.12,2.09-2.38,4.1-3.7,6.08C95.31,17.89,94.58,18.1,94.31,18.27Z" transform="translate(-8.31 -0.62)"/><path class="cls-1" d="M114.55,85s.12,0,.15,0c2.44,1.63,5,3.14,7.27,5,.82.66.25,1.93-.49,2.72a2.1,2.1,0,0,1-2.78.33c-1.93-1.2-3.8-2.49-5.65-3.81a2,2,0,0,1-.57-2.73,8.64,8.64,0,0,1,1.82-1.74Z" transform="translate(-8.31 -0.62)"/><path class="cls-1" d="M19.3,29.89a6.67,6.67,0,0,1,.9.25c1.91.78,3.83,1.53,5.71,2.38a2.19,2.19,0,0,1,1.27,3.09,2.19,2.19,0,0,1-3.07,1.32c-1.93-.74-3.84-1.52-5.71-2.38A2.28,2.28,0,0,1,17,31.84,2.34,2.34,0,0,1,19.3,29.89Z" transform="translate(-8.31 -0.62)"/><path class="cls-1" d="M39.84,8.25a3.9,3.9,0,0,1,1.37.92c1.26,1.78,2.43,3.62,3.53,5.5A2.22,2.22,0,0,1,44,17.84a2.25,2.25,0,0,1-3.31-.72c-1.16-1.72-2.3-3.45-3.33-5.26S37.44,8.25,39.84,8.25Z" transform="translate(-8.31 -0.62)"/><path class="cls-1" d="M23.29,84.75c.56.56,1.52,1.08,1.73,1.82a2.92,2.92,0,0,1-.52,2.57,40,40,0,0,1-5.72,3.93,2,2,0,0,1-2.88-.87,2.22,2.22,0,0,1,.44-3.13c1.67-1.3,3.42-2.5,5.17-3.7A9.62,9.62,0,0,1,23.29,84.75Z" transform="translate(-8.31 -0.62)"/><path class="cls-1" d="M117.4,29.53a10.14,10.14,0,0,1,2.08,2.15,2,2,0,0,1-.94,2.62A43.94,43.94,0,0,1,112,37a2.9,2.9,0,0,1-2.42-1.24c-.36-.6-.18-2.25.3-2.53C112.18,31.87,114.68,30.82,117.4,29.53Z" transform="translate(-8.31 -0.62)"/><path class="cls-1" d="M123.51,64.3c-1.11,0-2.23.06-3.33,0a2.07,2.07,0,0,1-2.1-2.27c0-1.37.63-2.29,2-2.35,2.21-.09,4.44-.1,6.65,0A2.41,2.41,0,0,1,129,62.13a2.26,2.26,0,0,1-2.42,2.18c-1,0-2,0-3,0Z" transform="translate(-8.31 -0.62)"/><path class="cls-1" d="M13.63,64.31c-1.06,0-2.12,0-3.17,0a2.11,2.11,0,0,1-2.14-2.12,2.19,2.19,0,0,1,1.93-2.47,70.06,70.06,0,0,1,7.1,0,2,2,0,0,1,1.83,2.35,2.12,2.12,0,0,1-2.07,2.2c-1.15.1-2.32,0-3.48,0Z" transform="translate(-8.31 -0.62)"/><path class="cls-1" d="M70.35,6.07c0,1.11.05,2.22,0,3.33a2.31,2.31,0,0,1-4.56.2,67.62,67.62,0,0,1,0-7.26c.07-1.26,1.1-1.73,2.29-1.71A2,2,0,0,1,70.3,2.44c.12,1.2,0,2.42,0,3.63Z" transform="translate(-8.31 -0.62)"/></svg>